<?xml version="1.0" standalone="no"?>
<!DOCTYPE svg PUBLIC "-//W3C//DTD SVG 20010904//EN"
 "http://www.w3.org/TR/2001/REC-SVG-20010904/DTD/svg10.dtd">
<svg version="1.0" xmlns="http://www.w3.org/2000/svg"
 width="1024.000000pt" height="1024.000000pt" viewBox="0 0 1024.000000 1024.000000"
 preserveAspectRatio="xMidYMid meet">

<g transform="translate(0.000000,1024.000000) scale(0.100000,-0.100000)"
fill="#000000" stroke="none">
<path d="M0 5120 l0 -5120 5120 0 5120 0 0 5120 0 5120 -5120 0 -5120 0 0
-5120z m5565 1530 c161 -12 350 -48 457 -86 155 -56 366 -177 454 -261 22 -21
28 -28 14 -15 -14 12 -32 22 -39 22 -6 0 -23 12 -36 28 -17 19 -27 24 -34 16
-8 -7 13 -31 72 -81 45 -39 108 -102 139 -139 66 -81 157 -229 183 -296 18
-49 32 -65 22 -26 -4 12 -1 29 6 37 9 11 9 13 0 8 -6 -4 -15 -2 -19 4 -4 8 -3
9 4 5 7 -4 12 -1 12 6 1 21 40 -59 73 -147 58 -159 79 -274 84 -470 6 -194 -8
-327 -48 -481 -43 -164 -127 -334 -201 -407 -22 -22 -36 -43 -32 -50 4 -7 3
-9 -1 -4 -5 4 -17 0 -27 -10 -19 -17 -25 -39 -8 -28 18 11 11 -1 -12 -21 -22
-19 -23 -19 -8 1 14 18 14 19 -2 7 -9 -8 -15 -19 -12 -26 5 -12 -87 -99 -128
-122 -17 -9 -10 -19 78 -103 53 -51 115 -106 138 -123 58 -43 159 -87 236
-104 138 -29 197 -15 289 71 l64 60 -7 -69 c-4 -38 -14 -85 -23 -105 -15 -33
-17 -34 -20 -13 -4 18 -8 21 -18 12 -7 -6 -17 -10 -21 -9 -12 3 -86 -19 -104
-31 -12 -8 -8 -10 15 -11 17 -1 -37 -8 -120 -15 l-150 -12 180 3 c126 2 157 1
105 -5 -93 -9 -1596 -10 -1895 -1 -152 5 50 9 660 11 l880 5 -757 5 c-416 3
-760 8 -764 13 -7 6 159 13 246 9 27 -1 31 0 15 7 -16 7 -9 10 30 14 28 3 91
13 140 21 68 12 148 15 330 13 132 -1 326 1 430 6 105 4 206 9 226 9 36 2 35
3 -60 66 -53 36 -116 83 -139 106 -67 63 -219 238 -322 371 -52 66 -137 174
-191 240 -134 165 -352 441 -548 694 -90 116 -167 208 -172 205 -5 -3 -8 0 -7
6 2 7 -5 14 -14 15 -10 2 -16 -2 -15 -8 1 -6 -4 -12 -10 -13 -7 -1 -18 -2 -24
-3 -5 0 -7 -5 -4 -11 3 -5 -4 -21 -17 -34 -13 -13 -30 -32 -39 -42 -20 -24
-59 -56 -59 -49 0 3 -15 -9 -33 -28 -19 -18 -49 -41 -68 -49 -19 -9 -44 -26
-56 -38 -15 -13 -23 -16 -23 -8 0 7 -9 2 -19 -11 -14 -18 -20 -20 -23 -10 -4
11 -8 11 -18 2 -14 -13 -18 -7 203 -278 55 -66 135 -165 180 -220 44 -55 124
-152 177 -215 288 -344 480 -593 479 -620 0 -11 -2 -12 -6 -2 -4 10 -10 9 -25
-5 -19 -17 -61 -18 -712 -21 -380 -2 -706 0 -724 3 -39 7 -44 16 -68 150 -17
91 -18 157 -16 755 2 695 7 867 25 835 10 -19 11 -19 18 0 4 11 8 -263 9 -610
1 -644 10 -942 29 -1006 6 -20 22 -48 36 -63 l24 -26 635 0 c364 0 645 4 659
9 41 16 41 49 0 111 -46 69 -122 171 -173 231 -22 26 -70 84 -107 130 -36 46
-72 89 -78 94 -6 6 -40 46 -75 90 -73 91 -87 108 -153 178 -26 28 -45 52 -43
55 3 2 -36 54 -86 116 -49 61 -151 187 -226 279 -76 92 -166 205 -202 251
-177 227 -264 326 -287 326 -10 0 -13 -36 -14 -157 0 -87 -4 -327 -8 -534 -6
-334 -9 -379 -24 -394 -15 -14 -33 -16 -131 -11 -67 3 -129 11 -150 20 -31 13
-36 20 -36 47 0 18 -2 30 -5 28 -2 -3 -9 -187 -15 -409 -13 -456 -19 -497 -73
-531 -29 -18 -46 -20 -182 -17 -93 2 -158 8 -170 15 -17 11 -11 12 40 13 43 0
56 3 45 10 -8 5 -38 10 -65 10 -45 0 -75 12 -75 29 0 4 73 5 162 3 179 -2 203
3 227 52 8 18 16 81 19 165 5 127 6 133 18 96 11 -37 13 -30 14 85 0 69 0 197
-1 285 -1 88 -2 507 -4 930 -1 562 -5 794 -15 860 -7 50 -13 106 -14 126 0 21
-9 46 -19 56 -9 11 -14 22 -11 25 11 11 -92 37 -161 40 -66 3 -70 5 -92 36
-44 66 -107 62 931 62 555 0 998 -4 1081 -10z m-1708 -2222 c-1 -95 -3 -20 -3
167 0 187 2 265 3 173 2 -92 2 -245 0 -340z m-80 -709 c-8 -5 -22 -6 -31 -3
-27 11 -17 21 15 16 24 -4 28 -7 16 -13z m-87 -50 l105 -5 -101 -2 c-78 -2
-104 1 -120 14 -10 8 -12 12 -4 7 8 -4 62 -11 120 -14z m87 15 c-3 -3 -12 -4
-19 -1 -8 3 -5 6 6 6 11 1 17 -2 13 -5z m3400 0 c-3 -3 -12 -4 -19 -1 -8 3 -5
6 6 6 11 1 17 -2 13 -5z m-2309 -11 c-27 -2 -69 -2 -95 0 -27 2 -5 3 47 3 52
0 74 -1 48 -3z m100 0 c-10 -2 -26 -2 -35 0 -10 3 -2 5 17 5 19 0 27 -2 18 -5z
m-501 -10 c-109 -2 -285 -2 -390 0 -106 1 -16 2 198 2 215 0 301 -1 192 -2z"/>
<path d="M3550 6644 c0 -8 32 -33 43 -34 5 0 5 4 2 10 -8 13 -45 33 -45 24z"/>
<path d="M4510 6545 c0 -7 37 -59 83 -116 82 -102 533 -703 697 -929 46 -63
109 -146 140 -185 316 -391 411 -516 539 -705 241 -357 455 -621 582 -720 50
-39 67 -47 43 -19 -37 43 -39 50 -7 44 27 -6 27 -6 9 9 -11 9 -17 19 -13 22 4
4 -28 44 -71 89 -94 99 -310 362 -334 407 -11 19 -14 36 -9 42 5 6 19 34 31
61 24 58 20 32 -5 -36 -17 -43 -17 -46 0 -72 17 -27 18 -27 32 -7 55 78 108
370 120 654 13 345 -43 720 -137 906 -28 55 -115 180 -126 180 -3 0 -2 -6 2
-12 4 -7 -24 16 -62 52 -101 96 -183 156 -271 197 -43 20 -81 41 -84 46 -4 5
-11 7 -17 3 -6 -3 -13 -2 -16 3 -9 15 -170 49 -282 60 -55 6 -238 15 -405 21
-167 5 -334 12 -371 14 -52 4 -68 2 -68 -9z m1620 -449 c0 -5 -9 3 -20 17 -11
14 -20 29 -20 34 1 10 39 -39 40 -51z m20 -35 c0 -8 13 -42 29 -75 16 -34 34
-81 41 -106 7 -25 16 -55 21 -68 5 -13 9 -35 8 -50 0 -15 -9 4 -20 45 -22 82
-48 152 -83 222 -19 37 -21 48 -10 48 8 0 14 -7 14 -16z m111 -357 c-5 -21 -9
-30 -10 -19 -1 24 10 67 15 62 3 -2 0 -22 -5 -43z m16 -16 c-3 -8 -6 -5 -6 6
-1 11 2 17 5 13 3 -3 4 -12 1 -19z m10 -65 c-3 -10 -5 -2 -5 17 0 19 2 27 5
18 2 -10 2 -26 0 -35z m-20 0 c-3 -10 -5 -4 -5 12 0 17 2 24 5 18 2 -7 2 -21
0 -30z m31 -258 l-1 -90 -7 105 c-4 58 -10 132 -13 165 -6 56 -5 55 8 -15 8
-41 13 -115 13 -165z m6 -366 c-2 -35 -4 -84 -4 -109 -1 -30 -4 -39 -9 -27 -4
12 -11 -12 -20 -70 -7 -48 -17 -97 -22 -108 -7 -16 -8 -14 -4 10 20 120 36
245 42 330 7 111 22 89 17 -26z m-70 -373 c-3 -15 -8 -25 -11 -23 -2 3 -1 17
3 31 3 15 8 25 11 23 2 -3 1 -17 -3 -31z"/>
<path d="M3847 6429 c4 -13 8 -18 11 -10 2 7 -1 18 -6 23 -8 8 -9 4 -5 -13z"/>
<path d="M6310 6401 c14 -11 21 -21 15 -21 -5 0 1 -7 13 -16 12 -8 27 -12 33
-9 11 7 1 16 -56 50 l-30 17 25 -21z"/>
<path d="M6801 5775 c1 -19 18 -51 18 -35 0 8 -4 22 -9 30 -5 8 -9 11 -9 5z"/>
<path d="M6821 5718 c-1 -3 8 -46 20 -93 67 -284 65 -595 -6 -876 -14 -56 -24
-103 -22 -106 5 -4 49 157 67 242 34 157 29 454 -10 658 -18 90 -47 196 -49
175z"/>
<path d="M3887 4346 c-4 -43 -6 -138 -5 -210 l1 -131 9 185 c9 203 7 280 -5
156z"/>
<path d="M6330 4375 c-66 -16 -62 -16 -80 -2 -15 12 20 -33 128 -165 35 -43
66 -78 70 -78 3 0 2 3 -1 6 -3 4 -2 14 3 24 7 13 4 22 -10 35 -15 13 -17 22
-10 36 8 14 6 20 -7 28 -17 10 -16 10 2 11 11 0 16 4 10 8 -5 4 -11 15 -11 25
-1 12 6 17 25 17 22 1 24 2 9 11 -10 5 -18 18 -18 28 0 11 -10 21 -22 25 -27
7 -19 8 -88 -9z"/>
<path d="M3638 3793 c29 -2 74 -2 100 0 26 2 2 3 -53 3 -55 0 -76 -1 -47 -3z"/>
<path d="M7135 3760 c-11 -4 -29 -7 -40 -6 -11 2 -13 1 -5 -2 12 -4 11 -6 -5
-13 -15 -5 -8 -8 24 -8 24 -1 41 2 38 6 -4 3 1 12 11 19 19 15 7 17 -23 4z"/>
<path d="M7028 3753 c6 -2 18 -2 25 0 6 3 1 5 -13 5 -14 0 -19 -2 -12 -5z"/>
</g>
</svg>
