<svg id="svg" version="1.1" xmlns="http://www.w3.org/2000/svg" xmlns:xlink="http://www.w3.org/1999/xlink" width="400" height="400" viewBox="0, 0, 400,400"><g id="svgg"><path id="path0" d="M354.247 5.822 C 354.111 6.176,354.000 7.621,354.000 9.033 L 354.000 11.600 240.400 11.600 L 126.800 11.600 126.800 29.200 L 126.800 46.800 257.604 46.800 L 388.408 46.800 388.304 29.300 L 388.200 11.800 376.917 11.694 L 365.633 11.588 365.517 8.494 L 365.400 5.400 359.947 5.289 C 355.238 5.193,354.460 5.266,354.247 5.822 M158.711 30.100 L 158.821 36.000 152.811 36.000 L 146.800 36.000 146.800 29.989 L 146.800 23.979 152.700 24.089 L 158.600 24.200 158.711 30.100 M182.200 30.000 L 182.200 35.800 176.200 35.800 L 170.200 35.800 170.088 30.420 C 169.940 23.318,169.312 23.958,176.292 24.089 L 182.200 24.200 182.200 30.000 M126.800 114.200 L 126.800 169.600 206.000 169.600 L 285.200 169.600 285.200 194.200 L 285.200 218.800 328.900 218.795 C 364.804 218.791,372.970 218.692,374.676 218.238 C 381.461 216.431,386.412 211.330,387.841 204.676 C 388.271 202.671,388.375 188.561,388.386 130.500 L 388.400 58.800 257.600 58.800 L 126.800 58.800 126.800 114.200 M187.233 96.998 L 200.817 110.579 187.310 124.090 C 179.882 131.520,173.537 137.600,173.210 137.600 C 172.560 137.600,165.200 130.458,165.200 129.827 C 165.200 129.613,169.468 125.157,174.685 119.923 L 184.170 110.408 174.594 100.802 L 165.019 91.196 169.004 87.196 C 171.195 84.996,173.137 83.246,173.319 83.306 C 173.501 83.367,179.762 89.528,187.233 96.998 M345.367 93.043 C 346.121 93.332,346.307 102.679,345.586 104.026 C 345.173 104.797,221.015 105.318,219.033 104.557 C 218.375 104.305,218.037 93.696,218.667 93.067 C 219.000 92.734,344.500 92.710,345.367 93.043 M314.400 122.202 L 314.400 128.003 266.500 127.902 L 218.600 127.800 218.487 122.621 C 218.426 119.773,218.465 117.208,218.575 116.921 C 218.738 116.497,227.671 116.400,266.587 116.400 L 314.400 116.400 314.400 122.202 M11.783 181.699 C 11.678 181.975,11.638 189.850,11.696 199.200 L 11.800 216.200 142.704 216.301 L 273.608 216.401 273.504 198.901 L 273.400 181.400 142.688 181.299 C 38.328 181.219,11.937 181.300,11.783 181.699 M273.200 198.800 L 273.200 216.000 142.600 216.000 L 12.000 216.000 12.000 198.800 L 12.000 181.600 142.600 181.600 L 273.200 181.600 273.200 198.800 M11.600 300.872 C 11.600 354.225,11.722 374.126,12.055 375.172 C 14.066 381.485,18.515 385.934,24.828 387.945 C 25.880 388.280,52.443 388.400,125.512 388.400 L 224.766 388.400 224.908 391.300 L 225.050 394.200 225.025 391.200 L 225.000 388.200 125.200 388.000 C 30.667 387.811,25.306 387.762,23.613 387.087 C 17.898 384.807,14.037 380.591,12.544 375.000 C 12.108 373.367,12.009 359.735,12.005 300.700 L 12.000 228.400 142.600 228.400 L 273.200 228.400 273.195 300.700 C 273.190 378.129,273.276 374.743,271.217 378.771 C 269.771 381.600,266.607 384.641,263.486 386.203 C 261.949 386.971,260.980 387.600,261.332 387.600 C 262.152 387.600,265.360 385.828,267.317 384.294 C 269.311 382.732,271.674 379.195,272.742 376.173 L 273.600 373.747 273.600 300.873 L 273.600 228.000 142.600 228.000 L 11.600 228.000 11.600 300.872 M38.985 248.099 C 38.880 248.374,38.841 275.600,38.897 308.600 L 39.000 368.600 99.600 368.600 L 160.200 368.600 160.200 308.200 L 160.200 247.800 99.688 247.699 C 51.489 247.618,39.137 247.699,38.985 248.099 M176.269 247.865 C 175.427 248.706,176.000 259.185,176.900 259.402 C 177.395 259.522,193.730 259.570,213.200 259.510 L 248.600 259.400 248.600 253.600 L 248.600 247.800 212.569 247.698 C 192.752 247.642,176.417 247.717,176.269 247.865 M160.000 308.200 L 160.000 368.400 99.600 368.400 L 39.200 368.400 39.200 308.200 L 39.200 248.000 99.600 248.000 L 160.000 248.000 160.000 308.200 M248.400 253.600 L 248.400 259.200 212.600 259.200 L 176.800 259.200 176.800 253.600 L 176.800 248.000 212.600 248.000 L 248.400 248.000 248.400 253.600 M50.800 299.600 C 50.800 321.820,50.935 339.994,51.100 339.987 C 51.429 339.973,51.884 339.642,54.231 337.707 C 56.021 336.232,67.482 327.200,70.824 324.632 C 72.047 323.692,73.397 322.633,73.824 322.279 C 76.658 319.928,80.250 317.204,80.518 317.202 C 80.810 317.200,84.853 319.285,89.800 321.988 C 90.900 322.589,93.600 324.033,95.800 325.196 C 99.682 327.249,102.560 328.796,106.514 330.955 C 109.648 332.666,106.884 334.756,130.917 312.500 C 132.877 310.685,134.676 309.200,134.915 309.200 C 135.262 309.200,142.862 313.738,147.500 316.714 L 148.400 317.292 148.400 288.246 L 148.400 259.200 99.600 259.200 L 50.800 259.200 50.800 299.600 M148.000 288.009 L 148.000 316.418 146.900 315.739 C 146.295 315.365,144.317 314.101,142.504 312.930 C 140.691 311.758,139.026 310.800,138.804 310.800 C 138.582 310.800,138.400 310.641,138.400 310.447 C 138.400 310.252,138.085 309.993,137.700 309.871 C 137.315 309.749,136.519 309.335,135.931 308.951 C 134.705 308.150,135.319 307.711,127.240 315.163 C 124.952 317.273,122.591 319.450,121.995 320.000 C 121.399 320.550,119.041 322.725,116.755 324.833 C 114.470 326.941,111.838 329.344,110.906 330.174 L 109.212 331.683 106.506 330.278 C 100.738 327.285,100.194 326.994,100.000 326.790 C 99.890 326.675,98.180 325.779,96.200 324.800 C 94.220 323.821,92.510 322.925,92.400 322.810 C 92.290 322.694,91.390 322.178,90.400 321.661 C 89.410 321.145,86.943 319.840,84.917 318.761 C 82.891 317.683,80.911 316.806,80.517 316.813 C 79.773 316.826,79.573 316.954,76.969 319.082 C 76.106 319.787,74.230 321.282,72.800 322.404 C 71.370 323.527,69.750 324.801,69.200 325.236 C 68.650 325.672,67.678 326.426,67.040 326.914 C 66.401 327.401,62.801 330.238,59.040 333.217 C 55.278 336.196,51.975 338.772,51.700 338.940 C 51.301 339.185,51.200 331.179,51.200 299.424 L 51.200 259.600 99.600 259.600 L 148.000 259.600 148.000 288.009 M96.600 270.640 C 89.049 271.701,81.293 277.924,79.199 284.600 C 78.923 285.480,78.541 286.613,78.349 287.119 C 76.928 290.860,78.416 299.680,81.191 303.973 C 82.910 306.632,86.670 310.400,87.605 310.400 C 87.822 310.400,88.000 310.538,88.000 310.706 C 88.000 311.016,90.291 312.144,92.765 313.050 C 109.011 319.003,125.843 302.276,120.373 285.614 C 117.123 275.713,106.794 269.207,96.600 270.640 M176.480 271.280 C 175.877 271.883,175.804 282.232,176.400 282.600 C 176.660 282.760,176.800 280.804,176.800 277.024 L 176.800 271.200 203.621 271.200 L 230.441 271.200 230.321 277.001 C 230.243 280.743,230.342 282.754,230.600 282.668 C 231.238 282.455,231.344 271.538,230.712 271.137 C 229.834 270.580,177.041 270.719,176.480 271.280 M105.355 271.802 C 128.924 278.952,124.159 313.370,99.600 313.370 C 75.431 313.370,70.228 279.789,93.191 272.006 C 96.001 271.053,102.527 270.944,105.355 271.802 M98.900 282.676 C 99.285 282.776,99.915 282.776,100.300 282.676 C 100.685 282.575,100.370 282.493,99.600 282.493 C 98.830 282.493,98.515 282.575,98.900 282.676 M93.374 284.716 C 91.898 286.021,90.397 288.121,90.409 288.862 C 90.414 289.158,90.710 288.807,91.067 288.083 C 91.425 287.358,92.526 286.053,93.515 285.183 C 94.504 284.312,95.152 283.607,94.956 283.616 C 94.760 283.625,94.048 284.120,93.374 284.716 M105.685 285.183 C 106.674 286.053,107.775 287.358,108.133 288.083 C 108.490 288.807,108.786 289.171,108.791 288.891 C 108.805 288.078,106.892 285.418,105.610 284.470 C 103.700 283.059,103.744 283.474,105.685 285.183 M89.701 292.200 C 89.705 293.080,89.787 293.393,89.883 292.895 C 89.979 292.398,89.975 291.678,89.875 291.295 C 89.775 290.913,89.696 291.320,89.701 292.200 M109.309 292.400 C 109.309 293.390,109.387 293.795,109.482 293.300 C 109.578 292.805,109.578 291.995,109.482 291.500 C 109.387 291.005,109.309 291.410,109.309 292.400 M90.023 294.513 C 89.918 295.940,93.435 300.800,94.572 300.800 C 94.798 300.800,94.286 300.226,93.435 299.525 C 92.585 298.824,91.474 297.339,90.967 296.225 C 90.461 295.111,90.036 294.341,90.023 294.513 M176.176 294.918 C 176.066 295.205,176.026 297.861,176.088 300.820 L 176.200 306.200 212.400 306.200 L 248.600 306.200 248.600 300.400 L 248.600 294.600 212.488 294.498 C 183.073 294.415,176.339 294.493,176.176 294.918 M248.400 300.400 L 248.400 306.000 212.600 306.000 L 176.800 306.000 176.800 300.400 L 176.800 294.800 212.600 294.800 L 248.400 294.800 248.400 300.400 M106.317 298.841 C 105.282 299.918,104.584 300.800,104.766 300.800 C 105.114 300.800,108.400 297.372,108.400 297.009 C 108.400 296.686,108.324 296.753,106.317 298.841 M98.300 302.068 C 99.056 302.274,100.144 302.274,100.900 302.068 C 102.011 301.765,101.823 301.713,99.600 301.713 C 97.377 301.713,97.189 301.765,98.300 302.068 M176.300 318.232 C 175.727 318.808,175.948 329.059,176.544 329.554 C 176.940 329.882,184.357 329.977,203.644 329.900 L 230.200 329.794 203.511 329.697 L 176.821 329.600 176.711 323.766 C 176.650 320.557,176.465 318.067,176.300 318.232 M230.400 323.776 C 230.400 327.392,230.552 329.600,230.800 329.600 C 231.048 329.600,231.200 327.475,231.200 324.024 C 231.200 320.737,231.036 318.346,230.800 318.200 C 230.540 318.040,230.400 319.996,230.400 323.776 M134.200 325.075 C 133.320 325.874,131.333 327.714,129.784 329.164 C 128.235 330.614,125.985 332.686,124.784 333.769 C 123.583 334.851,121.517 336.741,120.193 337.969 C 118.870 339.196,116.620 341.269,115.193 342.575 C 113.767 343.881,111.430 346.043,110.000 347.380 C 108.570 348.716,105.726 351.320,103.681 353.166 C 101.619 355.026,100.114 356.674,100.304 356.864 C 100.492 357.052,111.436 357.158,124.623 357.100 L 148.600 356.994 124.459 356.897 L 100.318 356.800 102.224 355.100 C 103.273 354.165,104.791 352.770,105.598 352.000 C 106.405 351.230,108.836 348.980,111.000 347.000 C 113.164 345.020,115.312 343.040,115.772 342.600 C 116.233 342.160,118.491 340.090,120.790 338.000 C 123.089 335.910,125.349 333.840,125.812 333.400 C 127.157 332.123,134.335 325.550,135.277 324.733 C 136.118 324.004,137.634 324.072,137.933 324.853 C 138.007 325.044,138.240 325.200,138.451 325.200 C 138.663 325.200,140.133 326.074,141.718 327.141 C 143.303 328.209,145.168 329.375,145.862 329.732 C 146.556 330.089,147.411 330.668,147.762 331.019 C 148.113 331.370,148.400 331.487,148.400 331.279 C 148.400 330.931,146.778 329.826,139.572 325.264 C 136.391 323.250,136.216 323.244,134.200 325.075 M75.600 335.446 C 69.029 340.657,63.311 345.153,55.900 350.939 C 51.492 354.381,50.800 355.076,50.800 356.061 L 50.800 357.200 66.522 357.200 L 82.244 357.200 83.822 355.759 C 101.845 339.299,100.691 340.672,97.685 339.258 C 95.941 338.438,95.875 338.432,96.800 339.177 C 97.350 339.620,98.014 339.986,98.276 339.991 C 100.282 340.029,99.749 340.624,88.510 350.900 L 82.057 356.800 66.629 356.800 L 51.200 356.800 51.200 355.800 C 51.200 355.250,51.335 354.798,51.500 354.795 C 51.665 354.792,52.430 354.271,53.200 353.636 C 53.970 353.001,57.390 350.300,60.800 347.633 C 64.210 344.965,67.272 342.562,67.605 342.292 C 67.938 342.021,68.761 341.350,69.434 340.800 C 70.107 340.250,71.256 339.350,71.987 338.800 C 72.718 338.250,75.199 336.310,77.500 334.489 L 81.683 331.178 86.341 333.661 C 94.601 338.063,95.313 338.421,95.479 338.255 C 95.682 338.051,82.085 330.772,81.600 330.825 C 81.490 330.837,78.790 332.917,75.600 335.446 M248.200 388.000 L 237.000 388.219 248.200 388.303 C 254.905 388.354,259.641 388.232,260.000 388.000 C 260.533 387.655,260.533 387.622,260.000 387.697 C 259.670 387.743,254.360 387.880,248.200 388.000 " stroke="none" fill="#6a83a2" fill-rule="evenodd"></path><path id="path1" d="M146.889 30.100 L 147.000 35.800 152.700 35.911 L 158.400 36.022 158.400 30.211 L 158.400 24.400 152.589 24.400 L 146.778 24.400 146.889 30.100 M170.489 30.100 L 170.600 35.800 176.200 35.800 L 181.800 35.800 181.911 30.100 L 182.022 24.400 176.200 24.400 L 170.378 24.400 170.489 30.100 M31.380 193.309 C 31.267 193.601,31.226 196.261,31.288 199.220 L 31.400 204.600 37.200 204.600 L 43.000 204.600 43.000 198.800 L 43.000 193.000 37.292 192.889 C 32.836 192.802,31.539 192.894,31.380 193.309 M54.800 198.789 L 54.800 204.800 60.611 204.800 L 66.421 204.800 66.311 198.900 L 66.200 193.000 60.500 192.889 L 54.800 192.778 54.800 198.789 M12.126 300.500 C 12.198 340.155,12.391 373.230,12.555 374.000 C 12.900 375.613,13.154 376.283,14.411 378.898 C 16.270 382.765,21.232 386.425,26.000 387.445 C 26.770 387.610,71.905 387.803,126.300 387.874 L 225.200 388.003 225.200 391.402 L 225.200 394.800 230.784 394.800 L 236.368 394.800 236.484 391.500 L 236.600 388.200 247.800 387.965 C 253.960 387.836,259.651 387.546,260.446 387.319 C 266.419 385.622,271.212 380.391,272.749 373.894 C 273.075 372.518,273.200 352.058,273.200 300.194 L 273.200 228.400 142.598 228.400 L 11.996 228.400 12.126 300.500 M160.400 308.200 L 160.400 368.800 99.600 368.800 L 38.800 368.800 38.800 308.200 L 38.800 247.600 99.600 247.600 L 160.400 247.600 160.400 308.200 M249.116 252.800 C 249.179 255.550,249.131 258.206,249.007 258.702 L 248.784 259.604 212.492 259.502 L 176.200 259.400 176.089 253.498 L 175.979 247.596 212.489 247.698 L 249.000 247.800 249.116 252.800 M231.111 276.769 C 231.195 281.117,231.097 282.619,230.711 282.863 C 230.125 283.235,177.595 283.326,176.633 282.957 C 175.973 282.704,175.637 271.696,176.269 271.064 C 176.418 270.916,188.793 270.841,203.769 270.897 L 231.000 271.000 231.111 276.769 M249.000 300.400 L 249.000 306.200 212.500 306.302 L 176.000 306.404 176.000 300.400 L 176.000 294.396 212.500 294.498 L 249.000 294.600 249.000 300.400 M230.711 317.937 C 231.097 318.181,231.195 319.683,231.111 324.031 L 231.000 329.800 203.600 329.800 L 176.200 329.800 176.088 324.219 C 176.027 321.150,176.066 318.405,176.176 318.119 C 176.405 317.522,229.777 317.344,230.711 317.937 " stroke="none" fill="#f9faf8" fill-rule="evenodd"></path><path id="path2" d="M114.400 84.600 L 114.400 169.200 57.194 169.200 L -0.012 169.200 0.094 274.867 C 0.178 358.969,0.302 380.567,0.700 380.700 C 0.975 380.792,1.200 381.124,1.200 381.439 C 1.200 382.052,1.481 382.703,2.564 384.600 C 2.941 385.260,3.349 386.115,3.471 386.500 C 3.593 386.885,3.852 387.200,4.047 387.200 C 4.241 387.200,4.400 387.448,4.400 387.752 C 4.400 388.214,5.419 389.366,7.981 391.800 C 8.213 392.020,8.924 392.785,9.562 393.500 C 10.199 394.215,10.919 394.800,11.160 394.800 C 11.402 394.800,11.600 394.980,11.600 395.200 C 11.600 395.420,11.855 395.600,12.167 395.600 C 12.478 395.600,12.793 395.735,12.867 395.900 C 13.049 396.311,17.990 398.800,18.623 398.800 C 18.904 398.800,19.208 399.025,19.300 399.300 C 19.433 399.698,40.551 399.822,122.733 399.906 L 226.000 400.012 226.000 397.449 C 226.000 395.539,225.847 394.827,225.400 394.655 C 224.940 394.479,224.800 393.721,224.800 391.413 L 224.800 388.400 125.528 388.400 C 52.447 388.400,25.880 388.280,24.828 387.945 C 18.515 385.934,14.066 381.485,12.055 375.172 C 11.722 374.126,11.600 354.225,11.600 300.872 L 11.600 228.000 142.600 228.000 L 273.600 228.000 273.600 300.873 L 273.600 373.747 272.742 376.173 C 271.065 380.917,268.091 384.352,263.800 386.498 C 260.170 388.314,259.452 388.400,247.872 388.400 L 236.800 388.400 236.798 390.300 C 236.797 391.345,236.679 393.971,236.535 396.135 L 236.275 400.069 251.004 399.935 C 262.335 399.831,265.772 399.685,265.900 399.300 C 265.992 399.025,266.324 398.800,266.639 398.800 C 267.252 398.800,267.903 398.519,269.800 397.436 C 270.460 397.059,271.315 396.651,271.700 396.529 C 272.085 396.407,272.400 396.148,272.400 395.953 C 272.400 395.759,272.584 395.600,272.809 395.600 C 273.033 395.600,274.190 394.655,275.379 393.500 C 276.567 392.345,278.088 390.950,278.758 390.400 C 279.428 389.850,279.981 389.175,279.988 388.900 C 279.995 388.625,280.180 388.400,280.400 388.400 C 280.620 388.400,280.800 388.130,280.800 387.800 C 280.800 387.470,280.959 387.200,281.153 387.200 C 281.348 387.200,281.607 386.885,281.729 386.500 C 281.851 386.115,282.259 385.260,282.636 384.600 C 283.729 382.686,284.000 382.051,284.000 381.405 C 284.000 381.072,284.180 380.800,284.400 380.800 C 284.620 380.800,284.800 380.080,284.800 379.200 C 284.800 378.320,284.980 377.600,285.200 377.600 C 285.465 377.600,285.600 352.867,285.600 304.200 L 285.600 230.800 331.600 230.800 C 362.000 230.800,377.600 230.664,377.600 230.400 C 377.600 230.180,378.320 230.000,379.200 230.000 C 380.080 230.000,380.800 229.820,380.800 229.600 C 380.800 229.380,381.250 229.200,381.800 229.200 C 382.350 229.200,382.800 229.020,382.800 228.800 C 382.800 228.580,383.115 228.396,383.500 228.391 C 383.885 228.386,384.650 228.030,385.200 227.600 C 385.750 227.170,386.425 226.814,386.700 226.809 C 386.975 226.804,387.200 226.620,387.200 226.400 C 387.200 226.180,387.470 226.000,387.800 226.000 C 388.130 226.000,388.400 225.820,388.400 225.600 C 388.400 225.380,388.611 225.200,388.869 225.200 C 389.519 225.200,395.600 218.834,395.600 218.153 C 395.600 217.849,395.759 217.600,395.953 217.600 C 396.148 217.600,396.410 217.285,396.536 216.900 C 396.662 216.515,397.223 215.430,397.782 214.489 C 398.342 213.548,398.800 212.438,398.800 212.023 C 398.800 211.607,399.025 211.192,399.300 211.100 C 399.698 210.967,399.822 189.409,399.906 105.467 L 400.012 0.000 382.545 0.000 L 365.078 0.000 365.339 4.262 C 365.483 6.606,365.600 9.214,365.600 10.056 L 365.600 11.588 376.900 11.694 L 388.200 11.800 388.304 29.300 L 388.408 46.800 257.604 46.800 L 126.800 46.800 126.800 29.200 L 126.800 11.600 240.400 11.600 L 354.000 11.600 354.000 8.829 C 354.000 6.898,354.182 5.875,354.600 5.457 C 355.002 5.056,355.200 4.054,355.200 2.429 L 355.200 0.000 234.800 0.000 L 114.400 0.000 114.400 84.600 M388.386 130.500 C 388.375 188.561,388.271 202.671,387.841 204.676 C 386.412 211.330,381.461 216.431,374.676 218.238 C 372.970 218.692,364.804 218.791,328.900 218.795 L 285.200 218.800 285.200 194.200 L 285.200 169.600 206.000 169.600 L 126.800 169.600 126.800 114.200 L 126.800 58.800 257.600 58.800 L 388.400 58.800 388.386 130.500 M169.004 87.196 L 165.019 91.196 174.594 100.802 L 184.170 110.408 174.685 119.923 C 169.468 125.157,165.200 129.613,165.200 129.827 C 165.200 130.458,172.560 137.600,173.210 137.600 C 173.537 137.600,179.882 131.520,187.310 124.090 L 200.817 110.579 187.233 96.998 C 179.762 89.528,173.501 83.367,173.319 83.306 C 173.137 83.246,171.195 84.996,169.004 87.196 M218.667 93.067 C 218.037 93.696,218.375 104.305,219.033 104.557 C 221.015 105.318,345.173 104.797,345.586 104.026 C 346.307 102.679,346.121 93.332,345.367 93.043 C 344.500 92.710,219.000 92.734,218.667 93.067 M218.575 116.921 C 218.465 117.208,218.426 119.773,218.487 122.621 L 218.600 127.800 266.500 127.902 L 314.400 128.003 314.400 122.202 L 314.400 116.400 266.587 116.400 C 227.671 116.400,218.738 116.497,218.575 116.921 M273.504 198.901 L 273.608 216.401 142.704 216.301 L 11.800 216.200 11.696 199.200 C 11.638 189.850,11.678 181.975,11.783 181.699 C 11.937 181.300,38.328 181.219,142.688 181.299 L 273.400 181.400 273.504 198.901 M39.200 308.200 L 39.200 368.400 99.600 368.400 L 160.000 368.400 160.000 308.200 L 160.000 248.000 99.600 248.000 L 39.200 248.000 39.200 308.200 M176.800 253.600 L 176.800 259.200 212.600 259.200 L 248.400 259.200 248.400 253.600 L 248.400 248.000 212.600 248.000 L 176.800 248.000 176.800 253.600 M148.400 288.246 L 148.400 317.292 147.500 316.714 C 142.862 313.738,135.262 309.200,134.915 309.200 C 134.676 309.200,132.877 310.685,130.917 312.500 C 106.884 334.756,109.648 332.666,106.514 330.955 C 102.560 328.796,99.682 327.249,95.800 325.196 C 93.600 324.033,90.900 322.589,89.800 321.988 C 84.853 319.285,80.810 317.200,80.518 317.202 C 80.250 317.204,76.658 319.928,73.824 322.279 C 73.397 322.633,72.047 323.692,70.824 324.632 C 67.482 327.200,56.021 336.232,54.231 337.707 C 51.884 339.642,51.429 339.973,51.100 339.987 C 50.935 339.994,50.800 321.820,50.800 299.600 L 50.800 259.200 99.600 259.200 L 148.400 259.200 148.400 288.246 M93.191 272.006 C 70.228 279.789,75.431 313.370,99.600 313.370 C 124.159 313.370,128.924 278.952,105.355 271.802 C 102.527 270.944,96.001 271.053,93.191 272.006 M176.800 277.003 L 176.800 282.806 203.500 282.703 L 230.200 282.600 230.311 276.900 L 230.422 271.200 203.611 271.200 L 176.800 271.200 176.800 277.003 M103.713 283.337 C 112.494 288.054,111.010 299.531,101.300 301.999 C 94.783 303.655,88.157 296.480,90.076 289.846 C 91.758 284.032,98.773 280.684,103.713 283.337 M176.800 300.400 L 176.800 306.000 212.600 306.000 L 248.400 306.000 248.400 300.400 L 248.400 294.800 212.600 294.800 L 176.800 294.800 176.800 300.400 M176.800 323.800 L 176.800 329.600 203.600 329.600 L 230.400 329.600 230.400 323.800 L 230.400 318.000 203.600 318.000 L 176.800 318.000 176.800 323.800 M139.572 325.264 C 141.017 326.179,143.595 327.822,145.300 328.914 L 148.400 330.901 148.400 344.050 L 148.400 357.200 124.424 357.200 C 110.719 357.200,100.352 357.046,100.226 356.841 C 100.104 356.644,101.668 354.981,103.702 353.146 C 105.736 351.311,108.570 348.716,110.000 347.380 C 111.430 346.043,113.767 343.881,115.193 342.575 C 116.620 341.269,118.870 339.196,120.193 337.969 C 121.517 336.741,123.583 334.851,124.784 333.769 C 125.985 332.686,128.235 330.614,129.784 329.164 C 136.780 322.615,135.926 322.955,139.572 325.264 M86.088 333.023 C 87.910 334.001,91.693 336.015,94.495 337.500 C 97.296 338.985,99.661 340.387,99.750 340.616 C 99.885 340.967,96.631 344.061,83.822 355.759 L 82.244 357.200 66.522 357.200 L 50.800 357.200 50.800 356.061 C 50.800 355.076,51.492 354.381,55.900 350.939 C 63.117 345.305,68.906 340.753,75.600 335.450 C 79.414 332.429,81.636 330.922,82.088 331.051 C 82.467 331.159,84.267 332.046,86.088 333.023 " stroke="none" fill="#040404" fill-rule="evenodd"></path><path id="path3" d="M12.000 198.800 L 12.000 216.000 142.600 216.000 L 273.200 216.000 273.200 198.800 L 273.200 181.600 142.600 181.600 L 12.000 181.600 12.000 198.800 M43.000 198.800 L 43.000 204.600 37.200 204.600 L 31.400 204.600 31.288 199.220 C 31.140 192.127,30.542 192.758,37.292 192.889 L 43.000 193.000 43.000 198.800 M66.311 198.900 L 66.421 204.800 60.611 204.800 L 54.800 204.800 54.800 198.789 L 54.800 192.778 60.500 192.889 L 66.200 193.000 66.311 198.900 M95.691 283.668 C 90.986 285.950,88.863 291.275,90.827 295.867 C 94.298 303.980,105.757 303.656,108.644 295.363 C 111.304 287.720,102.930 280.159,95.691 283.668 M135.277 324.733 C 134.335 325.550,127.157 332.123,125.812 333.400 C 125.349 333.840,123.089 335.910,120.790 338.000 C 118.491 340.090,116.233 342.160,115.772 342.600 C 115.312 343.040,113.164 345.020,111.000 347.000 C 108.836 348.980,106.405 351.230,105.598 352.000 C 104.791 352.770,103.273 354.165,102.224 355.100 L 100.318 356.800 124.359 356.800 L 148.400 356.800 148.400 344.229 C 148.400 330.408,148.521 331.100,145.862 329.732 C 145.168 329.375,143.303 328.209,141.718 327.141 C 140.133 326.074,138.663 325.200,138.451 325.200 C 138.240 325.200,138.007 325.044,137.933 324.853 C 137.634 324.072,136.118 324.004,135.277 324.733 M77.500 334.489 C 75.199 336.310,72.718 338.250,71.987 338.800 C 71.256 339.350,70.107 340.250,69.434 340.800 C 68.761 341.350,67.938 342.021,67.605 342.292 C 67.272 342.562,64.210 344.965,60.800 347.633 C 57.390 350.300,53.970 353.001,53.200 353.636 C 52.430 354.271,51.665 354.792,51.500 354.795 C 51.335 354.798,51.200 355.250,51.200 355.800 L 51.200 356.800 66.637 356.800 L 82.074 356.800 86.737 352.527 C 100.631 339.794,99.767 340.756,98.100 339.881 C 93.150 337.283,90.365 335.811,86.341 333.664 L 81.683 331.178 77.500 334.489 " stroke="none" fill="#89eb92" fill-rule="evenodd"></path><path id="path4" d="M152.489 24.293 L 158.379 24.421 158.506 30.211 L 158.633 36.001 158.617 30.100 L 158.600 24.200 152.600 24.183 L 146.600 24.166 152.489 24.293 M170.277 24.256 C 169.901 24.632,169.923 35.505,170.300 35.739 C 170.465 35.842,170.546 33.332,170.479 30.163 L 170.359 24.400 176.200 24.400 L 182.041 24.400 181.921 30.181 C 181.854 33.361,181.940 35.822,182.112 35.650 C 182.283 35.477,182.373 32.831,182.312 29.768 L 182.200 24.200 176.377 24.090 C 173.174 24.029,170.429 24.104,170.277 24.256 M248.798 253.319 L 248.997 259.000 249.111 253.632 C 249.173 250.680,249.084 248.123,248.912 247.951 C 248.740 247.778,248.689 250.194,248.798 253.319 M51.200 299.424 C 51.200 331.179,51.301 339.185,51.700 338.940 C 51.975 338.772,55.278 336.196,59.040 333.217 C 62.801 330.238,66.401 327.401,67.040 326.914 C 67.678 326.426,68.650 325.672,69.200 325.236 C 69.750 324.801,71.370 323.527,72.800 322.404 C 74.230 321.282,76.106 319.787,76.969 319.082 C 79.573 316.954,79.773 316.826,80.517 316.813 C 80.911 316.806,82.891 317.683,84.917 318.761 C 86.943 319.840,89.410 321.145,90.400 321.661 C 91.390 322.178,92.290 322.694,92.400 322.810 C 92.510 322.925,94.220 323.821,96.200 324.800 C 98.180 325.779,99.890 326.675,100.000 326.790 C 100.194 326.994,100.738 327.285,106.506 330.278 L 109.212 331.683 110.906 330.174 C 111.838 329.344,114.470 326.941,116.755 324.833 C 119.041 322.725,121.399 320.550,121.995 320.000 C 122.591 319.450,124.952 317.273,127.240 315.163 C 135.319 307.711,134.705 308.150,135.931 308.951 C 136.519 309.335,137.315 309.749,137.700 309.871 C 138.085 309.993,138.400 310.252,138.400 310.447 C 138.400 310.641,138.582 310.800,138.804 310.800 C 139.026 310.800,140.691 311.758,142.504 312.930 C 144.317 314.101,146.295 315.365,146.900 315.739 L 148.000 316.418 148.000 288.009 L 148.000 259.600 99.600 259.600 L 51.200 259.600 51.200 299.424 M105.600 271.271 C 126.232 277.798,126.752 305.007,106.400 313.094 C 102.594 314.607,96.964 314.589,92.765 313.050 C 90.291 312.144,88.000 311.016,88.000 310.706 C 88.000 310.538,87.822 310.400,87.605 310.400 C 86.670 310.400,82.910 306.632,81.191 303.973 C 78.416 299.680,76.928 290.860,78.349 287.119 C 78.541 286.613,78.923 285.480,79.199 284.600 C 82.294 274.728,95.482 268.071,105.600 271.271 M190.100 283.100 C 197.525 283.161,209.675 283.161,217.100 283.100 C 224.525 283.039,218.450 282.989,203.600 282.989 C 188.750 282.989,182.675 283.039,190.100 283.100 M248.600 300.400 C 248.600 303.658,248.735 306.240,248.900 306.138 C 249.065 306.036,249.200 303.454,249.200 300.400 C 249.200 297.346,249.065 294.764,248.900 294.662 C 248.735 294.560,248.600 297.142,248.600 300.400 M176.262 317.900 C 176.093 318.172,196.125 318.168,221.000 317.892 C 226.280 317.833,218.416 317.743,203.524 317.693 C 188.632 317.642,176.364 317.735,176.262 317.900 M12.046 372.800 C 12.065 373.130,12.224 373.850,12.400 374.400 L 12.720 375.400 12.754 374.400 C 12.773 373.850,12.613 373.130,12.400 372.800 C 12.055 372.267,12.016 372.267,12.046 372.800 M17.000 382.800 C 18.083 383.900,19.060 384.800,19.170 384.800 C 19.280 384.800,18.483 383.900,17.400 382.800 C 16.317 381.700,15.340 380.800,15.230 380.800 C 15.120 380.800,15.917 381.700,17.000 382.800 M25.600 387.600 C 27.142 388.094,27.964 388.094,27.200 387.600 C 26.870 387.387,26.150 387.227,25.600 387.246 L 24.600 387.280 25.600 387.600 M236.566 388.545 C 236.451 388.844,236.414 390.149,236.484 391.445 L 236.612 393.800 236.806 390.899 C 237.001 387.988,236.954 387.533,236.566 388.545 " stroke="none" fill="#93b3f3" fill-rule="evenodd"></path></g></svg>