<svg id="svg" version="1.1" xmlns="http://www.w3.org/2000/svg" xmlns:xlink="http://www.w3.org/1999/xlink" width="400" height="400" viewBox="0, 0, 400,400"><g id="svgg"><path id="path0" d="M29.200 50.000 C 29.200 50.220,28.671 50.400,28.024 50.400 C 27.377 50.400,26.736 50.580,26.600 50.800 C 26.464 51.020,26.043 51.200,25.665 51.200 C 25.286 51.200,24.717 51.560,24.400 52.000 C 24.083 52.440,23.638 52.800,23.412 52.800 C 22.779 52.801,21.061 54.472,20.430 55.700 C 20.119 56.305,19.715 56.800,19.532 56.800 C 19.350 56.800,19.200 57.160,19.200 57.600 C 19.200 58.040,19.065 58.401,18.900 58.403 C 18.453 58.408,17.600 60.426,17.600 61.480 C 17.600 61.986,17.420 62.400,17.200 62.400 C 16.934 62.400,16.800 101.933,16.800 180.200 C 16.800 258.467,16.934 298.000,17.200 298.000 C 17.420 298.000,17.600 298.540,17.600 299.200 C 17.600 299.860,17.780 300.400,18.000 300.400 C 18.220 300.400,18.400 300.940,18.400 301.600 C 18.400 302.260,18.550 302.800,18.732 302.800 C 18.915 302.800,19.320 303.294,19.632 303.897 C 20.506 305.586,22.586 307.510,24.379 308.286 C 25.270 308.673,26.000 309.126,26.000 309.294 C 26.000 309.462,26.360 309.600,26.800 309.600 C 27.240 309.600,27.600 309.780,27.600 310.000 C 27.600 310.266,62.667 310.400,132.000 310.400 L 236.400 310.400 236.398 326.500 C 236.395 344.069,236.190 346.552,234.560 348.688 C 232.220 351.756,234.733 351.581,192.700 351.591 L 155.200 351.600 155.200 355.190 L 155.200 358.780 141.300 358.934 C 127.861 359.082,124.638 359.291,124.173 360.044 C 124.052 360.240,123.603 360.400,123.176 360.400 C 122.749 360.400,122.400 360.580,122.400 360.800 C 122.400 361.020,122.140 361.200,121.822 361.200 C 121.070 361.200,116.000 366.270,116.000 367.022 C 116.000 367.340,115.820 367.600,115.600 367.600 C 115.380 367.600,115.200 367.960,115.200 368.400 C 115.200 368.840,115.020 369.200,114.800 369.200 C 114.580 369.200,114.400 369.560,114.400 370.000 C 114.400 370.440,114.220 370.800,114.000 370.800 C 113.780 370.800,113.600 371.160,113.600 371.600 C 113.600 372.040,113.420 372.400,113.200 372.400 C 112.980 372.400,112.800 372.760,112.800 373.200 C 112.800 373.640,112.620 374.000,112.400 374.000 C 112.180 374.000,112.000 374.360,112.000 374.800 C 112.000 375.240,111.865 375.601,111.700 375.603 C 111.341 375.607,110.400 377.544,110.400 378.280 C 110.400 378.566,110.240 378.800,110.045 378.800 C 109.355 378.800,108.521 384.569,109.104 385.310 C 109.316 385.579,109.603 386.274,109.741 386.853 C 110.014 387.998,111.639 389.847,113.211 390.800 C 114.453 391.553,282.883 391.932,285.647 391.187 C 287.539 390.678,289.945 388.374,290.267 386.763 C 290.397 386.114,290.660 385.486,290.852 385.368 C 291.335 385.069,291.291 381.303,290.800 381.000 C 290.580 380.864,290.400 380.420,290.400 380.014 C 290.400 379.216,288.791 375.885,288.300 375.667 C 288.135 375.593,288.000 375.188,288.000 374.767 C 288.000 374.345,287.820 374.000,287.600 374.000 C 287.380 374.000,287.200 373.640,287.200 373.200 C 287.200 372.760,287.020 372.400,286.800 372.400 C 286.580 372.400,286.400 372.040,286.400 371.600 C 286.400 371.160,286.220 370.800,286.000 370.800 C 285.780 370.800,285.600 370.440,285.600 370.000 C 285.600 369.560,285.420 369.200,285.200 369.200 C 284.980 369.200,284.800 368.840,284.800 368.400 C 284.800 367.960,284.620 367.600,284.400 367.600 C 284.180 367.600,284.000 367.327,284.000 366.993 C 284.000 366.201,278.999 361.200,278.207 361.200 C 277.873 361.200,277.600 361.020,277.600 360.800 C 277.600 360.580,277.251 360.400,276.824 360.400 C 276.397 360.400,275.948 360.240,275.827 360.044 C 275.362 359.291,272.139 359.082,258.700 358.934 L 244.800 358.780 244.800 334.590 L 244.800 310.400 308.600 310.400 C 350.867 310.400,372.400 310.265,372.400 310.000 C 372.400 309.780,372.760 309.600,373.200 309.600 C 373.640 309.600,374.000 309.462,374.000 309.294 C 374.000 309.126,374.730 308.673,375.621 308.286 C 377.386 307.522,380.000 305.143,380.000 304.302 C 380.000 304.013,380.360 303.517,380.800 303.200 C 381.270 302.861,381.600 302.165,381.600 301.512 C 381.600 300.900,381.780 300.400,382.000 300.400 C 382.220 300.400,382.400 299.860,382.400 299.200 C 382.400 298.540,382.580 298.000,382.800 298.000 C 383.066 298.000,383.200 258.459,383.200 180.176 C 383.200 101.729,383.066 62.435,382.800 62.600 C 382.558 62.749,382.400 62.204,382.400 61.224 C 382.400 60.331,382.220 59.600,382.000 59.600 C 381.780 59.600,381.600 59.330,381.600 59.000 C 381.600 58.670,381.420 58.400,381.200 58.400 C 380.980 58.400,380.800 58.080,380.800 57.688 C 380.800 57.297,380.440 56.717,380.000 56.400 C 379.560 56.083,379.200 55.569,379.200 55.258 C 379.200 54.639,377.247 52.801,376.588 52.800 C 376.362 52.800,375.917 52.440,375.600 52.000 C 375.283 51.560,374.714 51.200,374.335 51.200 C 373.957 51.200,373.536 51.020,373.400 50.800 C 373.264 50.580,372.623 50.400,371.976 50.400 C 371.329 50.400,370.800 50.218,370.800 49.996 C 370.800 49.728,364.824 49.627,353.100 49.696 L 335.400 49.800 335.291 57.300 L 335.182 64.800 349.429 64.800 C 365.306 64.800,364.504 64.669,367.308 67.721 C 369.056 69.624,369.000 66.331,369.000 166.600 L 369.000 262.200 367.902 263.889 C 366.758 265.649,365.307 266.633,362.600 267.484 C 360.314 268.204,39.912 268.239,37.446 267.520 C 34.799 266.748,33.479 265.855,32.200 263.969 L 31.000 262.200 31.000 166.369 L 31.000 70.537 32.200 68.605 C 32.947 67.402,34.004 66.357,35.000 65.836 L 36.600 65.000 123.800 64.800 L 211.000 64.600 211.114 58.000 C 211.177 54.370,211.129 50.995,211.007 50.500 L 210.785 49.600 119.992 49.600 C 59.731 49.600,29.200 49.735,29.200 50.000 M218.006 283.930 C 221.904 285.970,222.019 291.847,218.209 294.300 C 216.816 295.197,216.753 295.200,200.000 295.200 C 183.247 295.200,183.184 295.197,181.791 294.300 C 177.932 291.816,178.045 286.043,181.994 283.942 C 184.117 282.812,215.851 282.801,218.006 283.930 " stroke="none" fill="#565656" fill-rule="evenodd"></path><path id="path1" d="M210.656 30.278 C 209.889 31.044,210.398 49.506,211.191 49.713 C 211.937 49.909,211.988 50.333,212.091 57.240 L 212.200 64.560 214.800 65.862 C 218.678 67.805,224.172 69.666,229.600 70.877 C 230.590 71.098,232.120 71.445,233.000 71.648 C 241.383 73.581,252.990 74.563,267.400 74.559 C 282.979 74.554,291.686 73.708,304.200 70.982 C 315.010 68.626,323.467 64.475,327.400 59.593 C 328.488 58.243,328.913 37.600,327.853 37.600 C 327.520 37.600,327.136 37.780,327.000 38.000 C 326.864 38.220,326.403 38.400,325.976 38.400 C 325.549 38.400,325.200 38.580,325.200 38.800 C 325.200 39.020,324.840 39.200,324.400 39.200 C 323.960 39.200,323.600 39.347,323.600 39.528 C 323.600 39.708,322.689 40.104,321.575 40.407 C 320.461 40.710,319.460 41.103,319.351 41.279 C 319.242 41.456,318.724 41.600,318.200 41.600 C 317.676 41.600,317.136 41.780,317.000 42.000 C 316.864 42.220,316.234 42.400,315.600 42.400 C 314.966 42.400,314.336 42.580,314.200 42.800 C 314.064 43.020,313.434 43.200,312.800 43.200 C 312.166 43.200,311.536 43.380,311.400 43.600 C 311.264 43.820,310.454 44.000,309.600 44.000 C 308.746 44.000,307.936 44.180,307.800 44.400 C 307.664 44.620,306.789 44.800,305.856 44.800 C 304.923 44.800,303.989 44.964,303.780 45.165 C 303.571 45.365,302.410 45.632,301.200 45.757 C 299.990 45.881,297.470 46.174,295.600 46.406 C 282.093 48.084,264.372 48.080,250.400 46.394 C 248.530 46.168,246.010 45.881,244.800 45.757 C 243.590 45.632,242.429 45.365,242.220 45.165 C 242.011 44.964,241.077 44.800,240.144 44.800 C 239.211 44.800,238.336 44.620,238.200 44.400 C 238.064 44.180,237.243 44.000,236.376 44.000 C 235.509 44.000,234.800 43.820,234.800 43.600 C 234.800 43.380,234.181 43.200,233.424 43.200 C 232.667 43.200,231.936 43.020,231.800 42.800 C 231.664 42.580,231.034 42.400,230.400 42.400 C 229.766 42.400,229.136 42.220,229.000 42.000 C 228.864 41.780,228.324 41.600,227.800 41.600 C 227.276 41.600,226.736 41.420,226.600 41.200 C 226.464 40.980,226.091 40.800,225.772 40.800 C 225.260 40.800,223.870 40.247,220.400 38.664 C 216.640 36.948,211.600 32.658,211.600 31.174 C 211.600 30.381,211.063 29.871,210.656 30.278 M231.674 51.558 C 234.822 52.774,236.021 56.231,234.334 59.231 C 231.662 63.987,224.403 62.064,224.403 56.600 C 224.403 52.836,228.188 50.211,231.674 51.558 M253.061 57.403 C 255.338 58.895,256.216 62.049,255.006 64.388 C 252.652 68.941,245.483 67.781,244.916 62.756 C 244.386 58.050,249.210 54.880,253.061 57.403 M211.696 82.421 L 211.800 98.841 215.203 100.378 C 217.074 101.223,220.044 102.407,221.803 103.010 C 224.822 104.043,225.788 104.307,229.900 105.222 C 230.835 105.430,232.455 105.791,233.500 106.024 C 249.795 109.658,276.842 110.008,296.200 106.835 C 300.711 106.095,301.401 105.967,302.800 105.609 C 303.570 105.412,305.100 105.037,306.200 104.777 C 315.647 102.538,324.519 97.995,327.245 94.000 C 328.170 92.644,329.026 73.808,328.253 71.795 C 328.033 71.221,326.010 71.855,326.003 72.500 C 326.001 72.665,325.747 72.800,325.438 72.800 C 324.953 72.800,323.680 73.352,320.705 74.850 C 320.323 75.043,319.659 75.200,319.229 75.200 C 318.799 75.200,318.336 75.380,318.200 75.600 C 318.064 75.820,317.524 76.000,317.000 76.000 C 316.476 76.000,315.936 76.180,315.800 76.400 C 315.664 76.620,315.034 76.800,314.400 76.800 C 313.766 76.800,313.148 76.961,313.026 77.158 C 312.905 77.355,312.129 77.613,311.303 77.732 C 310.476 77.851,308.900 78.139,307.800 78.372 C 302.532 79.489,297.444 80.251,291.000 80.887 C 284.268 81.551,260.971 81.546,254.800 80.878 C 245.224 79.842,238.009 78.569,232.000 76.854 C 231.230 76.634,230.150 76.337,229.600 76.194 C 228.542 75.918,227.058 75.339,225.905 74.753 C 225.523 74.559,224.985 74.400,224.708 74.400 C 223.220 74.400,216.424 70.458,214.217 68.314 C 212.907 67.041,211.780 66.000,211.713 66.000 C 211.646 66.000,211.638 73.389,211.696 82.421 M128.952 86.100 C 128.001 87.186,127.816 87.592,125.273 94.200 C 122.668 100.969,117.565 114.273,115.529 119.600 C 113.431 125.092,113.378 125.230,112.891 126.400 C 112.662 126.950,111.721 129.380,110.800 131.800 C 109.879 134.220,108.978 136.560,108.799 137.000 C 105.759 144.467,105.503 145.476,106.251 147.051 C 106.731 148.063,107.213 148.441,108.277 148.641 C 111.140 149.178,111.394 148.725,118.074 131.200 C 118.955 128.890,119.838 126.595,120.038 126.100 C 120.237 125.605,120.563 124.795,120.762 124.300 C 120.962 123.805,121.879 121.420,122.800 119.000 C 123.721 116.580,124.627 114.240,124.812 113.800 C 124.997 113.360,126.522 109.400,128.201 105.000 C 129.879 100.600,131.980 95.155,132.870 92.901 C 133.963 90.130,134.407 88.481,134.239 87.812 C 133.622 85.353,130.493 84.340,128.952 86.100 M232.438 86.219 C 237.306 88.737,235.226 96.156,229.653 96.153 C 226.461 96.151,224.400 94.082,224.400 90.879 C 224.400 86.861,228.775 84.325,232.438 86.219 M252.704 91.598 C 255.438 93.265,256.231 95.996,254.796 98.808 C 252.249 103.800,244.796 101.796,244.801 96.120 C 244.806 92.049,249.261 89.499,252.704 91.598 M95.800 97.127 C 85.729 102.460,78.440 106.343,74.854 108.286 C 73.453 109.044,70.393 110.657,68.054 111.869 C 60.162 115.959,60.021 118.098,67.400 121.803 C 68.940 122.577,71.280 123.802,72.600 124.525 C 73.920 125.249,77.160 126.983,79.800 128.378 C 82.440 129.772,85.500 131.402,86.600 132.000 C 87.700 132.597,90.580 134.127,93.000 135.399 C 95.420 136.671,97.571 137.867,97.780 138.056 C 99.424 139.544,103.212 137.665,103.187 135.374 C 103.165 133.329,102.950 133.165,94.600 128.800 C 92.180 127.535,89.570 126.146,88.800 125.713 C 88.029 125.280,84.699 123.514,81.400 121.789 C 73.390 117.602,73.104 117.439,73.048 117.040 C 72.995 116.657,73.131 116.579,82.200 111.801 C 85.720 109.947,89.590 107.890,90.800 107.230 C 92.010 106.571,94.669 105.178,96.708 104.134 C 102.814 101.009,104.423 99.026,102.687 96.765 C 101.153 94.766,100.160 94.819,95.800 97.127 M137.969 96.369 C 135.738 98.600,136.716 100.586,141.200 102.931 C 142.630 103.679,145.240 105.060,147.000 105.999 C 148.760 106.939,151.730 108.521,153.600 109.515 C 155.470 110.510,159.148 112.466,161.774 113.862 C 164.400 115.258,166.710 116.400,166.907 116.400 C 167.503 116.400,166.991 117.372,166.168 117.802 C 163.695 119.095,154.692 123.888,153.000 124.812 C 148.931 127.035,143.723 129.794,141.097 131.119 C 136.944 133.213,135.880 135.123,137.629 137.346 C 138.665 138.664,140.914 138.772,142.993 137.604 C 143.773 137.166,146.343 135.794,148.705 134.556 C 151.067 133.317,154.260 131.628,155.800 130.802 C 160.612 128.221,164.468 126.169,168.200 124.202 C 175.245 120.489,176.211 119.919,177.100 118.943 C 178.851 117.022,177.900 114.957,174.400 113.078 C 173.410 112.547,170.620 111.071,168.200 109.798 C 165.780 108.526,161.190 106.096,158.000 104.398 C 154.810 102.701,150.267 100.295,147.905 99.052 C 145.543 97.809,142.973 96.434,142.193 95.996 C 140.264 94.913,139.345 94.994,137.969 96.369 M211.600 115.895 C 211.600 124.717,211.706 132.212,211.836 132.550 C 212.078 133.181,218.403 136.400,219.400 136.400 C 219.704 136.400,220.064 136.580,220.200 136.800 C 220.336 137.020,220.876 137.200,221.400 137.200 C 221.924 137.200,222.451 137.359,222.571 137.554 C 222.692 137.749,223.287 138.007,223.895 138.129 C 224.990 138.349,227.116 138.859,230.200 139.643 C 233.262 140.422,239.688 141.545,243.800 142.020 C 266.189 144.606,290.351 143.392,307.200 138.833 C 307.970 138.624,309.050 138.337,309.600 138.194 C 310.150 138.050,310.960 137.786,311.400 137.607 C 311.840 137.428,312.830 137.061,313.600 136.793 C 315.098 136.272,316.694 135.612,319.100 134.518 C 323.794 132.385,327.706 128.744,328.143 126.104 C 328.501 123.935,328.458 105.508,328.095 105.667 C 327.927 105.740,326.712 106.314,325.395 106.942 C 321.934 108.592,320.112 109.333,317.800 110.029 C 316.920 110.294,315.840 110.649,315.400 110.818 C 314.960 110.987,313.700 111.334,312.600 111.588 C 311.500 111.842,309.970 112.206,309.200 112.395 C 292.244 116.573,264.030 117.103,243.200 113.636 C 240.220 113.140,237.777 112.638,235.200 111.993 C 234.210 111.745,232.813 111.445,232.096 111.327 C 231.379 111.208,230.694 110.951,230.573 110.756 C 230.452 110.560,229.924 110.400,229.400 110.400 C 228.876 110.400,228.336 110.220,228.200 110.000 C 228.064 109.780,227.601 109.600,227.171 109.600 C 226.741 109.600,226.077 109.441,225.695 109.247 C 225.313 109.052,224.550 108.715,224.000 108.497 C 219.360 106.660,215.120 103.969,213.044 101.543 L 211.600 99.856 211.600 115.895 M231.986 120.319 C 237.344 122.952,235.575 130.400,229.591 130.400 C 223.748 130.400,222.355 122.526,227.780 120.163 C 229.388 119.462,230.312 119.497,231.986 120.319 M253.010 126.006 C 256.474 128.147,256.312 133.002,252.704 135.202 C 246.909 138.735,241.531 129.909,247.165 126.112 C 248.872 124.962,251.251 124.919,253.010 126.006 M75.700 173.100 C 81.585 173.162,91.215 173.162,97.100 173.100 C 102.985 173.037,98.170 172.986,86.400 172.986 C 74.630 172.986,69.815 173.037,75.700 173.100 M160.500 173.100 C 180.465 173.157,213.135 173.157,233.100 173.100 C 253.065 173.043,236.730 172.996,196.800 172.996 C 156.870 172.996,140.535 173.043,160.500 173.100 M121.600 177.527 C 121.600 177.755,122.074 178.315,122.654 178.771 L 123.708 179.600 196.954 179.502 L 270.200 179.404 196.665 179.202 L 123.129 179.000 122.365 178.056 C 121.944 177.536,121.600 177.298,121.600 177.527 M75.300 179.500 C 81.405 179.562,91.395 179.562,97.500 179.500 C 103.605 179.438,98.610 179.387,86.400 179.387 C 74.190 179.387,69.195 179.438,75.300 179.500 M128.300 193.100 C 155.635 193.157,200.365 193.157,227.700 193.100 C 255.035 193.043,232.670 192.997,178.000 192.997 C 123.330 192.997,100.965 193.043,128.300 193.100 M289.862 193.100 C 289.760 193.265,300.082 193.400,312.800 193.400 C 325.518 193.400,335.840 193.265,335.738 193.100 C 335.636 192.935,325.314 192.800,312.800 192.800 C 300.286 192.800,289.964 192.935,289.862 193.100 M128.500 199.500 C 155.725 199.557,200.275 199.557,227.500 199.500 C 254.725 199.443,232.450 199.397,178.000 199.397 C 123.550 199.397,101.275 199.443,128.500 199.500 M301.500 199.500 C 307.715 199.562,317.885 199.562,324.100 199.500 C 330.315 199.438,325.230 199.387,312.800 199.387 C 300.370 199.387,295.285 199.438,301.500 199.500 M88.100 213.100 C 93.105 213.163,101.295 213.163,106.300 213.100 C 111.305 213.036,107.210 212.984,97.200 212.984 C 87.190 212.984,83.095 213.036,88.100 213.100 M182.532 213.100 C 210.655 213.157,256.555 213.157,284.532 213.100 C 312.509 213.043,289.500 212.997,233.400 212.997 C 177.300 212.997,154.409 213.043,182.532 213.100 M128.825 216.864 C 128.811 217.230,129.354 217.995,130.031 218.564 L 131.261 219.600 233.407 219.600 C 289.587 219.600,335.636 219.465,335.738 219.300 C 335.840 219.135,289.920 219.046,233.694 219.102 C 122.204 219.212,130.126 219.366,129.204 217.077 C 128.950 216.445,128.844 216.386,128.825 216.864 M115.915 218.824 C 115.478 219.078,108.502 219.183,96.653 219.112 C 86.435 219.050,78.283 219.132,78.538 219.294 C 79.518 219.917,115.381 219.650,116.224 219.013 C 117.112 218.341,116.932 218.231,115.915 218.824 M181.994 283.942 C 178.045 286.043,177.932 291.816,181.791 294.300 C 183.184 295.197,183.247 295.200,200.000 295.200 C 216.753 295.200,216.816 295.197,218.209 294.300 C 222.019 291.847,221.904 285.970,218.006 283.930 C 215.851 282.801,184.117 282.812,181.994 283.942 M155.200 331.000 L 155.200 351.600 192.700 351.591 C 234.733 351.581,232.220 351.756,234.560 348.688 C 236.190 346.552,236.395 344.069,236.398 326.500 L 236.400 310.400 195.800 310.400 L 155.200 310.400 155.200 331.000 " stroke="none" fill="#af66f1" fill-rule="evenodd"></path><path id="path2" d="M35.200 65.742 C 33.979 66.366,33.014 67.284,32.200 68.599 L 31.000 70.537 31.000 166.369 L 31.000 262.200 32.200 263.969 C 33.479 265.855,34.799 266.748,37.446 267.520 C 39.912 268.239,360.314 268.204,362.600 267.484 C 365.307 266.633,366.758 265.649,367.902 263.889 L 369.000 262.200 369.000 166.600 C 369.000 66.331,369.056 69.624,367.308 67.721 C 364.504 64.669,365.305 64.800,349.438 64.800 L 335.200 64.800 335.200 97.806 C 335.200 123.041,335.082 131.211,334.700 132.506 C 333.347 137.089,325.787 141.852,315.200 144.793 C 314.210 145.068,312.950 145.433,312.400 145.604 C 311.850 145.775,310.320 146.127,309.000 146.387 C 307.680 146.647,305.970 147.017,305.200 147.210 C 304.430 147.403,302.990 147.678,302.000 147.820 C 277.937 151.288,249.950 150.246,232.300 145.227 C 231.475 144.992,230.215 144.636,229.500 144.436 C 222.112 142.366,215.053 138.340,212.595 134.793 L 211.400 133.069 211.289 98.934 L 211.178 64.800 124.089 64.811 L 37.000 64.823 35.200 65.742 M133.120 86.011 C 134.649 87.436,134.611 88.489,132.870 92.901 C 131.980 95.155,129.879 100.600,128.201 105.000 C 126.522 109.400,124.997 113.360,124.812 113.800 C 124.627 114.240,123.721 116.580,122.800 119.000 C 121.879 121.420,120.962 123.805,120.762 124.300 C 120.563 124.795,120.237 125.605,120.038 126.100 C 119.838 126.595,118.955 128.890,118.074 131.200 C 111.394 148.725,111.140 149.178,108.277 148.641 C 107.213 148.441,106.731 148.063,106.251 147.051 C 105.503 145.476,105.759 144.467,108.799 137.000 C 108.978 136.560,109.879 134.220,110.800 131.800 C 111.721 129.380,112.662 126.950,112.891 126.400 C 113.378 125.230,113.431 125.092,115.529 119.600 C 117.565 114.273,122.668 100.969,125.273 94.200 C 127.816 87.592,128.001 87.186,128.952 86.100 C 129.955 84.954,131.940 84.912,133.120 86.011 M101.326 95.665 C 105.224 97.741,103.685 100.564,96.708 104.134 C 94.669 105.178,92.010 106.571,90.800 107.230 C 89.590 107.890,85.720 109.947,82.200 111.801 C 73.131 116.579,72.995 116.657,73.048 117.040 C 73.104 117.439,73.390 117.602,81.400 121.789 C 84.699 123.514,88.029 125.280,88.800 125.713 C 89.570 126.146,92.180 127.535,94.600 128.800 C 102.950 133.165,103.165 133.329,103.187 135.374 C 103.212 137.665,99.424 139.544,97.780 138.056 C 97.571 137.867,95.420 136.671,93.000 135.399 C 90.580 134.127,87.700 132.597,86.600 132.000 C 85.500 131.402,82.440 129.772,79.800 128.378 C 77.160 126.983,73.920 125.249,72.600 124.525 C 71.280 123.802,68.940 122.577,67.400 121.803 C 60.021 118.098,60.162 115.959,68.054 111.869 C 70.393 110.657,73.453 109.044,74.854 108.286 C 77.655 106.768,81.117 104.919,87.800 101.370 C 100.966 94.379,99.819 94.863,101.326 95.665 M142.193 95.996 C 142.973 96.434,145.543 97.809,147.905 99.052 C 150.267 100.295,154.810 102.701,158.000 104.398 C 161.190 106.096,165.780 108.526,168.200 109.798 C 175.768 113.778,176.178 114.020,177.100 115.044 C 178.915 117.061,177.926 118.999,174.000 121.118 C 172.790 121.770,170.180 123.159,168.200 124.202 C 164.468 126.169,160.612 128.221,155.800 130.802 C 154.260 131.628,151.067 133.317,148.705 134.556 C 146.343 135.794,143.773 137.166,142.993 137.604 C 140.914 138.772,138.665 138.664,137.629 137.346 C 135.880 135.123,136.944 133.213,141.097 131.119 C 143.723 129.794,148.931 127.035,153.000 124.812 C 154.692 123.888,163.695 119.095,166.168 117.802 C 166.991 117.372,167.503 116.400,166.907 116.400 C 166.710 116.400,164.400 115.258,161.774 113.862 C 159.148 112.466,155.470 110.510,153.600 109.515 C 151.730 108.521,148.760 106.939,147.000 105.999 C 145.240 105.060,142.630 103.679,141.200 102.931 C 136.716 100.586,135.738 98.600,137.969 96.369 C 139.345 94.994,140.264 94.913,142.193 95.996 M109.835 174.122 C 110.996 175.473,111.075 177.172,110.036 178.456 L 109.271 179.400 86.869 179.510 L 64.467 179.619 63.354 178.662 C 61.404 176.984,62.131 173.560,64.542 173.070 C 65.014 172.974,75.181 172.919,87.135 172.948 L 108.870 173.000 109.835 174.122 M271.435 174.122 C 272.726 175.624,272.661 177.001,271.231 178.431 L 270.062 179.600 196.885 179.600 L 123.708 179.600 122.654 178.771 C 120.724 177.253,121.492 174.006,124.000 173.080 C 124.330 172.958,157.421 172.891,197.535 172.929 L 270.469 173.000 271.435 174.122 M278.431 193.969 C 279.861 195.399,279.926 196.776,278.635 198.278 L 277.669 199.400 178.067 199.400 L 78.464 199.400 77.432 198.430 C 75.772 196.870,76.129 194.471,78.200 193.283 C 78.796 192.942,104.325 192.821,178.131 192.812 L 277.262 192.800 278.431 193.969 M336.580 193.748 C 338.088 194.954,338.221 197.157,336.869 198.509 L 335.978 199.400 312.800 199.400 L 289.622 199.400 288.731 198.509 C 287.379 197.157,287.512 194.954,289.020 193.748 L 290.200 192.804 312.800 192.804 L 335.400 192.804 336.580 193.748 M116.968 213.970 C 118.379 215.295,118.328 216.933,116.831 218.431 L 115.662 219.600 97.404 219.600 C 84.291 219.600,78.901 219.469,78.274 219.135 C 75.675 217.750,75.769 214.313,78.436 213.230 C 79.026 212.990,86.482 212.870,97.668 212.919 L 115.936 213.000 116.968 213.970 M336.869 213.891 C 338.221 215.243,338.088 217.446,336.580 218.652 L 335.400 219.596 233.331 219.598 L 131.261 219.600 130.031 218.564 C 128.011 216.865,128.615 214.031,131.200 213.081 C 131.530 212.960,177.740 212.892,233.889 212.930 L 335.978 213.000 336.869 213.891 M105.346 233.629 C 106.828 234.795,106.867 237.602,105.414 238.554 C 103.692 239.682,64.013 239.520,62.982 238.380 C 61.925 237.212,62.023 235.053,63.190 233.811 L 64.139 232.800 84.216 232.800 C 103.921 232.800,104.312 232.815,105.346 233.629 M271.400 234.073 C 272.585 235.481,272.560 237.118,271.333 238.474 C 270.703 239.171,267.507 239.200,192.064 239.200 L 113.452 239.200 112.526 238.330 C 111.158 237.045,111.244 234.732,112.700 233.646 L 113.800 232.825 192.064 232.813 L 270.329 232.800 271.400 234.073 " stroke="none" fill="#4087ef" fill-rule="evenodd"></path><path id="path3" d="M227.308 51.793 C 225.639 52.518,224.403 54.564,224.403 56.600 C 224.403 62.064,231.662 63.987,234.334 59.231 C 236.999 54.491,232.371 49.592,227.308 51.793 M247.734 57.206 C 242.739 59.737,244.509 67.200,250.105 67.200 C 251.460 67.200,252.442 66.940,253.244 66.368 C 258.669 62.506,253.672 54.196,247.734 57.206 M227.212 86.112 C 224.791 87.337,223.679 91.046,224.980 93.560 C 227.419 98.279,235.197 96.177,235.197 90.800 C 235.197 86.985,230.702 84.346,227.212 86.112 M247.708 91.393 C 245.182 92.491,244.034 96.159,245.394 98.788 C 247.346 102.564,252.874 102.575,254.796 98.808 C 257.212 94.072,252.612 89.261,247.708 91.393 M227.780 120.163 C 222.355 122.526,223.748 130.400,229.591 130.400 C 235.575 130.400,237.344 122.952,231.986 120.319 C 230.312 119.497,229.388 119.462,227.780 120.163 M247.165 126.112 C 241.531 129.909,246.909 138.735,252.704 135.202 C 253.421 134.765,254.365 133.821,254.802 133.104 C 257.678 128.386,251.790 122.996,247.165 126.112 M63.454 174.029 C 62.140 175.063,62.029 177.051,63.216 178.325 L 64.031 179.200 86.434 179.200 L 108.836 179.200 109.818 178.218 C 111.310 176.727,110.674 173.981,108.716 173.456 C 105.812 172.678,64.506 173.201,63.454 174.029 M122.846 173.900 C 121.458 175.052,121.320 176.957,122.537 178.173 L 123.564 179.200 196.982 179.200 C 269.867 179.200,270.406 179.194,271.200 178.400 C 272.391 177.209,272.267 175.068,270.946 174.029 L 269.892 173.200 196.790 173.200 C 127.758 173.200,123.642 173.239,122.846 173.900 M77.952 193.603 C 76.197 194.629,76.203 197.335,77.965 198.687 C 78.460 199.067,100.499 199.177,178.025 199.187 L 277.449 199.200 278.325 198.384 C 279.501 197.288,279.501 195.112,278.325 194.016 L 277.449 193.200 178.025 193.212 C 116.279 193.220,78.355 193.368,77.952 193.603 M288.982 194.182 C 287.782 195.382,287.729 196.748,288.829 198.146 L 289.658 199.200 312.759 199.200 L 335.861 199.200 336.730 198.274 C 337.961 196.964,337.879 195.078,336.546 194.029 C 335.508 193.212,335.152 193.200,312.728 193.200 L 289.964 193.200 288.982 194.182 M78.092 213.468 C 76.123 214.260,76.262 218.063,78.289 218.834 C 79.744 219.387,114.927 219.307,116.154 218.748 C 118.237 217.799,118.256 214.244,116.182 213.448 C 115.412 213.153,78.828 213.171,78.092 213.468 M130.075 214.016 C 128.699 215.298,128.764 216.972,130.243 218.300 L 131.245 219.200 233.368 219.200 L 335.492 219.200 336.546 218.371 C 337.924 217.287,337.983 215.299,336.674 214.070 L 335.748 213.200 233.350 213.200 L 130.951 213.200 130.075 214.016 M64.436 233.230 C 62.190 234.142,61.652 236.954,63.454 238.371 C 64.488 239.185,64.881 239.200,84.472 239.200 L 104.436 239.200 105.418 238.218 C 106.662 236.975,106.667 235.556,105.435 234.122 L 104.470 233.000 84.935 232.920 C 72.935 232.870,65.028 232.990,64.436 233.230 M113.510 233.424 C 111.382 234.578,111.030 236.521,112.655 238.145 L 113.709 239.200 191.801 239.200 L 269.892 239.200 270.946 238.371 C 272.656 237.026,272.355 234.411,270.371 233.385 C 268.651 232.496,115.151 232.533,113.510 233.424 " stroke="none" fill="#f6c923" fill-rule="evenodd"></path><path id="path4" d="M262.782 8.543 C 262.662 8.668,260.430 8.854,257.822 8.958 C 255.214 9.061,252.972 9.293,252.840 9.473 C 252.708 9.653,251.340 9.826,249.800 9.858 C 246.119 9.934,242.440 10.412,242.169 10.850 C 242.050 11.043,241.189 11.200,240.256 11.200 C 239.323 11.200,238.389 11.362,238.180 11.559 C 237.971 11.756,237.080 12.020,236.200 12.144 C 232.811 12.622,231.585 12.901,231.373 13.244 C 231.252 13.440,230.634 13.600,230.000 13.600 C 229.366 13.600,228.736 13.780,228.600 14.000 C 228.464 14.220,227.913 14.400,227.376 14.400 C 226.839 14.400,226.400 14.580,226.400 14.800 C 226.400 15.020,225.961 15.200,225.424 15.200 C 224.887 15.200,224.336 15.380,224.200 15.600 C 224.064 15.820,223.603 16.000,223.176 16.000 C 222.749 16.000,222.400 16.180,222.400 16.400 C 222.400 16.620,222.040 16.800,221.600 16.800 C 221.160 16.800,220.800 16.980,220.800 17.200 C 220.800 17.420,220.440 17.600,220.000 17.600 C 219.560 17.600,219.200 17.780,219.200 18.000 C 219.200 18.220,218.840 18.400,218.400 18.400 C 217.960 18.400,217.600 18.580,217.600 18.800 C 217.600 19.020,217.320 19.200,216.978 19.200 C 216.081 19.200,211.693 23.804,210.993 25.479 C 210.258 27.238,210.190 30.443,210.891 30.300 C 211.160 30.245,211.441 30.594,211.515 31.076 C 211.781 32.814,216.601 36.930,220.400 38.664 C 223.870 40.247,225.260 40.800,225.772 40.800 C 226.091 40.800,226.464 40.980,226.600 41.200 C 226.736 41.420,227.276 41.600,227.800 41.600 C 228.324 41.600,228.864 41.780,229.000 42.000 C 229.136 42.220,229.766 42.400,230.400 42.400 C 231.034 42.400,231.664 42.580,231.800 42.800 C 231.936 43.020,232.667 43.200,233.424 43.200 C 234.181 43.200,234.800 43.380,234.800 43.600 C 234.800 43.820,235.509 44.000,236.376 44.000 C 237.243 44.000,238.064 44.180,238.200 44.400 C 238.336 44.620,239.211 44.800,240.144 44.800 C 241.077 44.800,242.011 44.964,242.220 45.165 C 242.429 45.365,243.590 45.632,244.800 45.757 C 246.010 45.881,248.530 46.168,250.400 46.394 C 264.372 48.080,282.093 48.084,295.600 46.406 C 297.470 46.174,299.990 45.881,301.200 45.757 C 302.410 45.632,303.571 45.365,303.780 45.165 C 303.989 44.964,304.923 44.800,305.856 44.800 C 306.789 44.800,307.664 44.620,307.800 44.400 C 307.936 44.180,308.746 44.000,309.600 44.000 C 310.454 44.000,311.264 43.820,311.400 43.600 C 311.536 43.380,312.166 43.200,312.800 43.200 C 313.434 43.200,314.064 43.020,314.200 42.800 C 314.336 42.580,314.966 42.400,315.600 42.400 C 316.234 42.400,316.864 42.220,317.000 42.000 C 317.136 41.780,317.676 41.600,318.200 41.600 C 318.724 41.600,319.242 41.456,319.351 41.279 C 319.460 41.103,320.461 40.710,321.575 40.407 C 322.689 40.104,323.600 39.708,323.600 39.528 C 323.600 39.347,323.960 39.200,324.400 39.200 C 324.840 39.200,325.200 39.020,325.200 38.800 C 325.200 38.580,325.549 38.400,325.976 38.400 C 326.403 38.400,326.864 38.220,327.000 38.000 C 327.136 37.780,327.520 37.600,327.853 37.600 C 328.913 37.600,328.488 58.243,327.400 59.593 C 323.467 64.475,315.010 68.626,304.200 70.982 C 291.686 73.708,282.979 74.554,267.400 74.559 C 256.475 74.562,250.449 74.240,242.600 73.236 C 237.548 72.590,234.847 72.098,229.200 70.799 C 223.968 69.596,218.537 67.734,214.800 65.862 L 212.200 64.560 212.000 57.213 C 211.881 52.852,211.637 49.811,211.400 49.733 C 211.140 49.646,211.033 52.303,211.094 57.300 C 211.146 61.535,211.234 80.030,211.290 98.400 C 211.345 116.770,211.440 124.615,211.500 115.833 L 211.609 99.867 213.049 101.548 C 215.121 103.969,219.364 106.661,224.000 108.497 C 224.550 108.715,225.313 109.052,225.695 109.247 C 226.077 109.441,226.741 109.600,227.171 109.600 C 227.601 109.600,228.064 109.780,228.200 110.000 C 228.336 110.220,228.876 110.400,229.400 110.400 C 229.924 110.400,230.452 110.560,230.573 110.756 C 230.694 110.951,231.379 111.208,232.096 111.327 C 232.813 111.445,234.210 111.745,235.200 111.993 C 255.454 117.065,289.493 117.250,309.200 112.395 C 309.970 112.206,311.500 111.842,312.600 111.588 C 313.700 111.334,314.960 110.987,315.400 110.818 C 315.840 110.649,316.920 110.294,317.800 110.029 C 318.680 109.764,319.805 109.379,320.300 109.174 C 320.795 108.968,321.605 108.639,322.100 108.442 C 322.595 108.245,324.078 107.570,325.395 106.942 C 326.712 106.314,327.927 105.740,328.095 105.667 C 328.458 105.508,328.501 123.935,328.143 126.104 C 327.545 129.720,321.808 133.937,313.600 136.793 C 312.830 137.061,311.840 137.428,311.400 137.607 C 310.960 137.786,310.150 138.050,309.600 138.194 C 309.050 138.337,307.970 138.624,307.200 138.833 C 290.351 143.392,266.189 144.606,243.800 142.020 C 239.684 141.544,233.342 140.436,230.100 139.625 C 229.165 139.391,227.635 139.009,226.700 138.775 C 225.765 138.542,224.503 138.251,223.895 138.129 C 223.287 138.007,222.692 137.749,222.571 137.554 C 222.451 137.359,221.924 137.200,221.400 137.200 C 220.876 137.200,220.336 137.020,220.200 136.800 C 220.064 136.580,219.704 136.400,219.400 136.400 C 218.534 136.400,212.075 133.212,211.858 132.678 C 211.739 132.387,211.651 132.443,211.632 132.821 C 211.470 135.992,220.644 141.955,229.500 144.436 C 230.215 144.636,231.475 144.992,232.300 145.227 C 246.098 149.151,272.573 151.023,289.600 149.279 C 298.240 148.395,302.982 147.765,305.200 147.210 C 305.970 147.017,307.680 146.647,309.000 146.387 C 310.320 146.127,311.850 145.775,312.400 145.604 C 312.950 145.433,314.210 145.068,315.200 144.793 C 325.952 141.806,333.464 137.027,334.678 132.400 C 335.255 130.201,335.721 25.600,335.154 25.600 C 334.959 25.600,334.800 25.331,334.800 25.003 C 334.800 24.384,333.555 22.739,332.250 21.635 C 331.837 21.286,331.080 20.595,330.568 20.100 C 330.056 19.605,329.358 19.200,329.018 19.200 C 328.678 19.200,328.400 19.020,328.400 18.800 C 328.400 18.580,328.040 18.400,327.600 18.400 C 327.160 18.400,326.800 18.220,326.800 18.000 C 326.800 17.780,326.440 17.600,326.000 17.600 C 325.560 17.600,325.200 17.420,325.200 17.200 C 325.200 16.980,324.840 16.800,324.400 16.800 C 323.960 16.800,323.599 16.665,323.597 16.500 C 323.593 16.094,321.614 15.200,320.720 15.200 C 320.324 15.200,320.000 15.020,320.000 14.800 C 320.000 14.580,319.460 14.400,318.800 14.400 C 318.140 14.400,317.600 14.259,317.600 14.087 C 317.600 13.915,317.140 13.736,316.579 13.690 C 316.017 13.643,315.219 13.424,314.805 13.203 C 314.391 12.981,313.591 12.800,313.026 12.800 C 312.462 12.800,312.000 12.620,312.000 12.400 C 312.000 12.180,311.201 12.000,310.224 12.000 C 309.247 12.000,308.350 11.843,308.232 11.652 C 308.114 11.460,307.158 11.192,306.108 11.055 C 305.059 10.919,303.120 10.631,301.800 10.416 C 297.421 9.703,292.866 9.174,289.200 8.954 C 284.379 8.664,262.986 8.331,262.782 8.543 M214.217 68.314 C 216.424 70.458,223.220 74.400,224.708 74.400 C 224.985 74.400,225.523 74.559,225.905 74.753 C 227.058 75.339,228.542 75.918,229.600 76.194 C 230.150 76.337,231.230 76.634,232.000 76.854 C 248.375 81.527,279.137 82.984,298.600 80.006 C 301.914 79.500,305.426 78.876,307.800 78.372 C 308.900 78.139,310.476 77.851,311.303 77.732 C 312.129 77.613,312.905 77.355,313.026 77.158 C 313.148 76.961,313.766 76.800,314.400 76.800 C 315.034 76.800,315.664 76.620,315.800 76.400 C 315.936 76.180,316.476 76.000,317.000 76.000 C 317.524 76.000,318.064 75.820,318.200 75.600 C 318.336 75.380,318.799 75.200,319.229 75.200 C 319.659 75.200,320.323 75.043,320.705 74.850 C 323.680 73.352,324.953 72.800,325.438 72.800 C 325.747 72.800,326.001 72.665,326.003 72.500 C 326.010 71.855,328.033 71.221,328.253 71.795 C 329.026 73.808,328.170 92.644,327.245 94.000 C 324.519 97.995,315.647 102.538,306.200 104.777 C 305.100 105.037,303.570 105.412,302.800 105.609 C 301.401 105.967,300.711 106.095,296.200 106.835 C 276.842 110.008,249.795 109.658,233.500 106.024 C 232.455 105.791,230.835 105.430,229.900 105.222 C 225.788 104.307,224.822 104.043,221.803 103.010 C 220.044 102.407,217.074 101.223,215.203 100.378 L 211.800 98.841 211.696 82.421 C 211.638 73.389,211.646 66.000,211.713 66.000 C 211.780 66.000,212.907 67.041,214.217 68.314 " stroke="none" fill="#883bda" fill-rule="evenodd"></path></g></svg>