<svg id="svg" version="1.1" xmlns="http://www.w3.org/2000/svg" xmlns:xlink="http://www.w3.org/1999/xlink" width="400" height="400" viewBox="0, 0, 400,400"><g id="svgg"><path id="path0" d="M18.200 57.667 C 13.162 59.365,10.039 62.528,8.434 67.560 C 8.127 68.521,8.000 97.465,8.000 166.460 L 8.000 264.000 11.400 264.000 L 14.800 264.000 14.800 167.777 C 14.800 62.853,14.656 68.944,17.200 66.400 C 19.767 63.833,8.655 64.000,177.000 64.000 C 345.157 64.000,334.238 63.838,336.773 66.373 C 339.322 68.922,339.200 65.896,339.200 126.546 L 339.200 182.000 342.600 182.000 L 346.000 182.000 346.000 125.215 C 346.000 68.914,345.993 68.411,345.178 66.234 C 343.738 62.385,340.117 59.004,336.143 57.798 C 333.743 57.070,20.355 56.941,18.200 57.667 M22.985 72.500 C 22.880 72.775,22.841 100.900,22.897 135.000 L 23.000 197.000 31.800 197.000 L 40.600 197.000 40.800 182.400 C 41.042 164.718,41.425 163.458,47.374 160.756 C 48.268 160.350,48.706 160.014,48.346 160.009 C 46.351 159.982,42.797 163.183,41.378 166.285 L 40.400 168.424 40.400 182.620 L 40.400 196.816 31.900 196.708 L 23.400 196.600 23.400 134.600 L 23.400 72.600 177.000 72.600 L 330.600 72.600 330.600 127.300 C 330.600 157.385,330.735 182.000,330.900 182.000 C 331.065 182.000,331.200 157.250,331.200 127.000 L 331.200 72.000 177.187 72.000 C 54.346 72.000,23.136 72.101,22.985 72.500 M300.710 79.930 C 300.330 80.080,301.840 80.214,304.065 80.227 C 306.291 80.239,307.771 80.116,307.356 79.953 C 306.406 79.580,301.633 79.564,300.710 79.930 M296.453 81.232 C 283.419 87.016,281.958 105.122,293.886 113.040 C 295.995 114.440,299.463 115.871,299.837 115.496 C 299.944 115.389,299.090 114.994,297.940 114.618 C 289.703 111.924,284.362 102.208,286.563 93.920 C 288.275 87.470,292.084 83.299,298.378 80.980 C 299.237 80.664,299.483 80.456,299.000 80.456 C 298.560 80.456,297.414 80.805,296.453 81.232 M309.000 80.800 C 310.101 81.273,310.492 81.273,310.200 80.800 C 310.064 80.580,309.558 80.413,309.076 80.428 C 308.231 80.455,308.229 80.469,309.000 80.800 M313.168 82.811 C 316.502 84.966,318.200 86.845,319.836 90.189 C 320.586 91.723,321.200 92.676,321.200 92.309 C 321.200 89.414,313.714 81.200,311.076 81.200 C 310.856 81.200,311.798 81.925,313.168 82.811 M48.068 86.736 C 38.193 90.808,37.856 104.063,47.506 108.859 C 49.368 109.784,49.601 109.800,61.428 109.800 L 73.456 109.800 75.428 108.801 C 84.509 104.201,85.110 92.788,76.544 87.600 L 74.233 86.200 62.017 86.111 C 51.077 86.032,49.619 86.097,48.068 86.736 M75.800 87.537 C 84.391 92.567,84.162 104.065,75.383 108.417 C 72.378 109.907,51.019 109.952,47.757 108.475 C 37.905 104.016,39.010 89.405,49.400 86.761 C 52.674 85.927,74.128 86.558,75.800 87.537 M321.523 96.620 C 322.086 107.339,315.324 114.750,304.200 115.607 L 300.200 115.915 304.436 115.850 C 312.249 115.729,318.525 111.193,321.144 103.773 C 322.029 101.265,322.364 94.792,321.665 93.692 C 321.488 93.412,321.424 94.730,321.523 96.620 M214.262 93.900 C 214.160 94.065,216.193 94.137,218.780 94.060 C 226.264 93.836,229.671 97.332,225.428 100.881 C 224.973 101.262,224.812 101.579,225.071 101.587 C 225.630 101.602,227.062 99.866,227.420 98.738 C 227.879 97.292,226.699 95.129,224.890 94.100 C 223.926 93.552,214.586 93.376,214.262 93.900 M237.326 94.380 C 235.155 95.704,234.619 97.716,235.819 100.037 C 237.449 103.189,250.800 102.730,250.800 99.522 C 250.800 99.298,250.278 99.674,249.640 100.358 L 248.479 101.600 243.293 101.600 C 237.432 101.600,236.250 101.140,235.788 98.679 C 235.110 95.065,237.207 93.873,243.899 94.067 L 248.467 94.200 249.634 95.506 C 250.848 96.866,251.090 96.889,250.388 95.578 C 249.259 93.467,240.187 92.635,237.326 94.380 M261.861 93.900 C 261.759 94.065,263.473 94.138,265.670 94.062 C 273.559 93.788,276.721 96.380,273.364 100.369 C 272.795 101.046,272.497 101.600,272.702 101.600 C 275.550 101.600,275.386 95.458,272.502 94.100 C 271.344 93.555,262.182 93.383,261.861 93.900 M50.600 94.454 C 48.243 95.780,47.737 98.351,49.436 100.369 L 50.471 101.600 61.381 101.600 L 72.291 101.600 73.345 100.545 C 74.750 99.140,74.789 96.897,73.435 95.322 L 72.470 94.200 61.935 94.102 C 54.698 94.034,51.150 94.145,50.600 94.454 M212.246 95.386 C 211.255 96.898,211.400 99.673,212.526 100.730 C 213.849 101.973,214.318 101.809,213.055 100.545 C 211.725 99.216,211.626 96.984,212.829 95.454 C 213.285 94.874,213.486 94.400,213.275 94.400 C 213.064 94.400,212.601 94.844,212.246 95.386 M259.846 95.386 C 258.716 97.110,258.994 99.755,260.431 100.964 C 261.632 101.976,261.786 101.998,266.931 101.913 L 272.200 101.825 266.946 101.701 C 262.028 101.585,261.626 101.516,260.646 100.608 C 259.267 99.330,259.179 96.699,260.470 95.326 C 260.948 94.817,261.149 94.400,260.916 94.400 C 260.683 94.400,260.201 94.844,259.846 95.386 M216.917 101.897 C 218.411 101.974,220.751 101.974,222.117 101.896 C 223.482 101.818,222.260 101.755,219.400 101.755 C 216.540 101.756,215.422 101.820,216.917 101.897 M120.200 120.769 C 115.789 121.848,110.763 127.056,110.813 130.496 C 110.821 131.024,111.123 130.541,111.540 129.333 C 112.437 126.739,113.942 124.747,116.112 123.283 C 119.732 120.841,115.401 121.000,178.200 121.000 L 235.800 121.000 237.617 121.905 C 248.265 127.209,247.089 141.960,235.743 145.402 C 233.247 146.159,122.682 146.311,120.360 145.560 C 117.864 144.754,116.331 143.935,114.659 142.515 C 113.340 141.397,113.392 141.482,114.912 142.930 C 118.872 146.703,113.379 146.400,177.755 146.400 C 217.736 146.400,234.679 146.271,235.640 145.960 C 247.633 142.084,248.938 127.116,237.767 121.575 L 235.800 120.600 178.600 120.538 C 147.140 120.503,120.860 120.607,120.200 120.769 M110.514 133.400 C 110.517 134.500,110.595 134.903,110.687 134.295 C 110.779 133.686,110.777 132.786,110.682 132.295 C 110.587 131.803,110.511 132.300,110.514 133.400 M110.827 136.304 C 110.795 137.385,112.334 140.800,112.853 140.800 C 113.054 140.800,112.927 140.355,112.570 139.811 C 112.214 139.266,111.681 138.051,111.388 137.111 C 111.044 136.009,110.844 135.722,110.827 136.304 M49.738 159.506 C 49.484 159.668,63.614 159.800,81.138 159.800 L 113.000 159.800 114.995 160.720 C 117.410 161.833,118.551 162.838,120.056 165.178 C 120.685 166.156,121.200 166.724,121.200 166.440 C 121.200 164.309,117.253 160.937,113.240 159.640 C 111.686 159.137,50.520 159.008,49.738 159.506 M146.538 159.506 C 146.284 159.668,160.414 159.800,177.938 159.800 L 209.800 159.800 212.000 160.841 C 214.379 161.966,216.129 163.516,217.067 165.329 C 217.392 165.959,217.749 166.385,217.858 166.275 C 218.227 165.906,216.042 162.872,214.715 161.912 C 213.259 160.857,212.079 160.282,210.040 159.633 C 208.481 159.136,147.311 159.014,146.538 159.506 M241.200 159.665 C 240.650 159.894,239.636 160.320,238.947 160.612 C 235.958 161.878,232.755 166.172,232.840 168.800 C 232.867 169.626,232.939 169.557,233.257 168.400 C 234.551 163.693,237.665 160.806,242.313 160.005 C 246.236 159.329,304.404 159.621,306.490 160.328 C 311.944 162.174,313.722 165.679,314.022 175.169 L 314.244 182.200 314.322 175.846 C 314.441 166.169,311.928 161.169,306.242 159.768 C 304.246 159.276,242.371 159.178,241.200 159.665 M143.200 160.694 C 137.606 164.344,137.422 165.014,137.286 182.291 L 137.172 196.783 129.486 196.905 L 121.800 197.027 129.600 197.014 L 137.400 197.000 137.633 182.600 C 137.762 174.680,138.003 167.732,138.168 167.160 C 138.742 165.185,141.330 162.278,143.547 161.120 C 144.727 160.504,145.356 160.009,144.946 160.021 C 144.536 160.033,143.750 160.335,143.200 160.694 M218.238 168.200 C 218.570 170.184,218.802 170.504,218.794 168.967 C 218.791 168.325,218.604 167.530,218.379 167.200 C 218.086 166.770,218.046 167.054,218.238 168.200 M121.503 178.138 C 121.559 184.112,121.657 190.710,121.719 192.800 C 121.782 194.890,121.870 190.086,121.916 182.124 C 121.962 174.162,121.865 167.564,121.700 167.461 C 121.535 167.359,121.446 172.164,121.503 178.138 M280.575 190.747 C 277.079 191.941,274.771 194.009,272.929 197.600 L 271.800 199.800 271.800 279.200 L 271.800 358.600 272.985 360.941 C 274.309 363.556,276.683 365.856,279.513 367.262 L 281.400 368.200 324.000 368.200 L 366.600 368.200 368.800 367.073 C 372.503 365.176,374.637 362.605,375.966 358.440 C 376.584 356.504,376.578 201.871,375.960 199.960 C 374.338 194.940,371.482 191.975,366.943 190.598 C 363.753 189.630,283.441 189.769,280.575 190.747 M218.800 196.900 C 218.800 197.065,221.950 197.200,225.800 197.200 C 229.650 197.200,232.800 197.065,232.800 196.900 C 232.800 196.735,229.650 196.600,225.800 196.600 C 221.950 196.600,218.800 196.735,218.800 196.900 M308.542 197.557 C 310.572 198.220,313.449 200.912,314.430 203.067 C 318.347 211.665,328.898 211.809,333.422 203.327 C 336.512 197.535,338.508 196.811,351.400 196.807 C 365.075 196.803,367.902 198.129,369.202 205.155 C 369.776 208.259,369.745 350.270,369.169 353.383 C 368.328 357.933,365.676 360.530,361.153 361.233 C 356.451 361.964,286.086 361.531,284.400 360.761 C 282.237 359.773,280.572 358.178,279.645 356.207 L 278.800 354.409 278.800 279.253 C 278.800 197.370,278.646 202.871,281.018 200.051 C 282.101 198.765,283.580 197.931,286.000 197.244 C 288.040 196.665,306.601 196.923,308.542 197.557 M23.067 205.067 C 22.920 205.213,22.800 218.533,22.800 234.667 L 22.800 264.000 143.200 264.000 L 263.600 264.000 263.600 256.443 C 263.600 247.361,265.129 248.400,251.763 248.400 C 239.869 248.400,239.052 248.235,236.101 245.236 C 232.987 242.070,233.024 242.323,232.800 222.600 L 232.600 205.000 225.700 204.891 L 218.800 204.781 218.800 221.731 C 218.800 238.602,218.734 239.570,217.370 242.640 C 216.658 244.242,213.666 246.994,211.778 247.783 C 209.822 248.601,146.796 248.727,144.919 247.917 C 141.744 246.548,139.166 243.977,138.180 241.200 C 137.985 240.650,137.730 232.280,137.613 222.600 L 137.400 205.000 129.700 204.891 L 122.000 204.783 122.000 221.172 C 122.000 241.318,121.814 242.422,117.833 245.918 C 114.861 248.527,116.726 248.400,81.251 248.396 L 49.000 248.392 46.978 247.451 C 41.176 244.749,40.800 243.246,40.800 222.761 C 40.800 213.579,40.691 205.781,40.557 205.433 C 40.304 204.774,23.707 204.427,23.067 205.067 M286.844 205.346 C 286.519 205.739,286.420 210.559,286.496 222.446 L 286.600 239.000 296.740 239.000 L 306.881 239.000 307.488 237.200 C 309.938 229.930,318.307 224.605,326.000 225.422 C 327.321 225.562,327.587 225.512,327.000 225.234 C 324.582 224.091,316.732 225.761,314.471 227.900 C 314.181 228.175,313.797 228.400,313.618 228.400 C 312.198 228.400,306.800 236.046,306.800 238.056 C 306.800 238.761,306.282 238.800,296.800 238.800 L 286.800 238.800 286.800 222.243 C 286.800 207.514,286.870 205.659,287.433 205.443 C 288.219 205.141,304.703 205.130,305.800 205.430 C 306.265 205.557,307.010 206.517,307.580 207.725 C 309.146 211.040,316.062 217.271,317.065 216.269 C 317.167 216.166,316.393 215.658,315.344 215.141 C 312.777 213.875,309.684 210.712,308.099 207.731 C 307.384 206.386,306.514 205.176,306.166 205.042 C 304.761 204.503,287.317 204.777,286.844 205.346 M341.707 205.063 C 341.436 205.172,340.635 206.349,339.927 207.677 C 337.688 211.877,333.760 215.166,329.200 216.658 C 328.300 216.953,328.086 217.131,328.600 217.158 C 331.827 217.326,340.800 209.740,340.800 206.845 C 340.800 205.006,359.825 204.177,360.786 205.974 C 361.052 206.470,361.200 212.491,361.200 222.774 L 361.200 238.800 351.400 238.800 C 342.014 238.800,341.600 238.768,341.600 238.034 C 341.600 235.298,336.476 228.926,332.904 227.221 C 331.857 226.721,330.687 226.152,330.305 225.956 C 329.923 225.760,329.203 225.606,328.705 225.614 C 328.146 225.623,328.564 225.905,329.800 226.351 C 335.318 228.343,339.199 232.135,340.914 237.209 L 341.519 239.000 351.559 239.107 L 361.600 239.214 361.600 222.487 C 361.600 210.010,361.478 205.638,361.120 205.280 C 360.641 204.801,342.845 204.602,341.707 205.063 M318.000 216.800 C 318.330 217.013,318.960 217.178,319.400 217.166 L 320.200 217.144 319.400 216.800 C 318.204 216.286,317.205 216.286,318.000 216.800 M321.200 217.600 C 321.750 217.776,323.010 217.920,324.000 217.920 C 324.990 217.920,326.250 217.776,326.800 217.600 C 327.450 217.392,326.469 217.280,324.000 217.280 C 321.531 217.280,320.550 217.392,321.200 217.600 M286.596 248.100 C 286.009 250.516,286.597 352.827,287.200 353.208 C 288.360 353.942,360.233 353.709,360.973 352.970 C 361.541 352.402,361.593 347.176,361.501 299.870 L 361.400 247.400 351.500 247.293 C 343.718 247.209,341.600 247.294,341.600 247.693 C 341.597 251.479,335.092 258.399,329.800 260.245 C 320.845 263.369,309.142 257.226,307.043 248.300 L 306.785 247.200 296.800 247.200 L 286.815 247.200 286.596 248.100 M346.074 267.748 C 357.964 270.546,359.505 286.317,348.400 291.561 L 346.200 292.600 323.992 292.600 L 301.784 292.600 299.062 291.260 C 288.641 286.130,290.206 270.898,301.471 267.802 C 304.284 267.029,342.820 266.982,346.074 267.748 M7.867 271.867 C 7.094 272.640,7.594 300.008,8.427 302.479 C 10.182 307.691,14.345 311.495,19.019 312.157 L 20.600 312.382 19.200 311.945 C 9.294 308.853,8.000 305.848,8.000 285.935 L 8.000 272.001 135.500 271.900 L 263.000 271.799 135.567 271.699 C 65.478 271.645,8.013 271.720,7.867 271.867 M263.200 292.200 C 263.200 305.400,263.339 312.400,263.600 312.400 C 263.861 312.400,264.000 305.400,264.000 292.200 C 264.000 279.000,263.861 272.000,263.600 272.000 C 263.339 272.000,263.200 279.000,263.200 292.200 M175.200 279.200 C 174.497 279.425,175.032 279.520,177.000 279.520 C 178.968 279.520,179.503 279.425,178.800 279.200 C 178.250 279.024,177.440 278.880,177.000 278.880 C 176.560 278.880,175.750 279.024,175.200 279.200 M172.200 280.000 C 171.908 280.473,172.299 280.473,173.400 280.000 C 174.171 279.669,174.169 279.655,173.324 279.628 C 172.842 279.613,172.336 279.780,172.200 280.000 M181.827 280.422 C 190.957 283.934,192.319 297.068,184.135 302.662 C 183.219 303.288,182.531 303.862,182.606 303.939 C 183.404 304.743,187.896 300.041,189.172 297.066 C 192.017 290.428,186.644 279.495,180.600 279.625 C 180.160 279.634,180.712 279.993,181.827 280.422 M168.716 282.123 C 162.090 287.525,162.472 298.034,169.470 302.848 C 170.452 303.524,171.350 303.983,171.465 303.868 C 171.580 303.753,171.141 303.383,170.489 303.046 C 162.803 299.071,162.455 286.518,169.900 281.769 C 170.835 281.172,171.600 280.620,171.600 280.542 C 171.600 280.051,170.554 280.625,168.716 282.123 M174.967 287.588 C 171.863 288.843,171.033 292.956,173.369 295.506 C 176.448 298.865,182.000 296.712,182.000 292.159 C 182.000 288.639,178.305 286.237,174.967 287.588 M179.251 288.227 C 181.762 289.525,182.216 293.426,180.086 295.401 C 177.082 298.186,172.825 296.309,172.825 292.200 C 172.825 288.520,176.010 286.550,179.251 288.227 M348.800 300.742 C 358.299 305.716,358.336 318.837,348.864 323.488 L 346.600 324.600 324.000 324.600 L 301.400 324.600 299.114 323.478 C 288.689 318.358,290.189 302.939,301.400 299.982 C 302.060 299.808,312.590 299.696,324.800 299.733 L 347.000 299.800 348.800 300.742 M172.200 304.400 C 172.336 304.620,172.842 304.787,173.324 304.772 C 174.169 304.745,174.171 304.731,173.400 304.400 C 172.299 303.927,171.908 303.927,172.200 304.400 M180.600 304.400 C 179.829 304.731,179.831 304.745,180.676 304.772 C 181.158 304.787,181.664 304.620,181.800 304.400 C 182.092 303.927,181.701 303.927,180.600 304.400 M175.557 305.262 C 176.431 305.514,177.428 305.515,178.357 305.268 C 179.662 304.920,179.531 304.882,177.000 304.877 C 174.524 304.873,174.357 304.917,175.557 305.262 M146.582 320.901 C 146.477 321.177,146.437 328.152,146.495 336.401 L 146.600 351.400 177.000 351.400 L 207.400 351.400 207.505 335.900 L 207.609 320.400 177.192 320.400 C 153.181 320.400,146.734 320.506,146.582 320.901 M206.800 336.000 L 206.800 351.200 177.000 351.200 L 147.200 351.200 147.200 336.000 L 147.200 320.800 177.000 320.800 L 206.800 320.800 206.800 336.000 M332.636 332.922 C 334.015 334.528,333.935 336.527,332.431 338.031 L 331.262 339.200 324.200 339.200 L 317.138 339.200 315.969 338.031 C 314.086 336.147,314.598 332.966,316.943 331.984 C 317.414 331.786,320.921 331.664,324.736 331.712 L 331.671 331.800 332.636 332.922 M66.000 336.000 C 66.000 336.220,65.717 336.400,65.371 336.400 C 64.573 336.400,63.600 337.360,63.600 338.148 C 63.600 338.481,63.420 338.864,63.200 339.000 C 62.980 339.136,62.800 340.317,62.800 341.624 L 62.800 344.000 60.200 344.000 C 58.733 344.000,57.600 344.174,57.600 344.400 C 57.600 344.620,57.317 344.800,56.971 344.800 C 56.250 344.800,55.460 345.548,55.270 346.410 C 55.199 346.734,54.974 347.060,54.770 347.133 C 54.267 347.315,54.296 352.000,54.800 352.000 C 55.020 352.000,55.200 352.294,55.200 352.653 C 55.200 354.143,57.233 355.199,60.100 355.200 L 62.800 355.200 62.800 357.800 C 62.800 359.267,62.974 360.400,63.200 360.400 C 63.420 360.400,63.600 360.730,63.600 361.132 C 63.600 361.535,64.044 362.102,64.586 362.393 C 65.129 362.683,65.478 363.073,65.363 363.260 C 65.247 363.447,66.603 363.600,68.376 363.600 C 70.259 363.600,71.600 363.434,71.600 363.200 C 71.600 362.980,71.860 362.800,72.177 362.800 C 73.160 362.800,73.950 361.188,74.463 358.132 L 74.956 355.200 77.478 355.200 C 78.893 355.200,80.000 355.024,80.000 354.800 C 80.000 354.580,80.360 354.400,80.800 354.400 C 81.333 354.400,81.600 354.133,81.600 353.600 C 81.600 353.160,81.780 352.800,82.000 352.800 C 82.220 352.800,82.400 352.440,82.400 352.000 C 82.400 351.560,82.580 351.200,82.800 351.200 C 83.020 351.200,83.200 350.761,83.200 350.224 C 83.200 349.687,83.020 349.136,82.800 349.000 C 82.580 348.864,82.400 348.295,82.400 347.736 C 82.400 345.737,80.039 344.000,77.321 344.000 L 74.963 344.000 74.480 341.185 C 73.770 337.043,72.254 335.600,68.613 335.600 C 67.138 335.600,66.000 335.774,66.000 336.000 M111.538 360.817 C 109.094 363.386,109.795 366.835,113.037 368.190 C 114.785 368.920,239.277 369.126,240.400 368.400 C 240.789 368.149,218.484 368.010,177.047 368.006 L 113.094 368.000 111.747 366.572 C 110.273 365.008,110.068 363.801,110.980 362.040 C 112.344 359.401,106.948 359.600,177.173 359.600 L 240.773 359.600 242.162 360.989 C 243.137 361.964,243.597 362.826,243.708 363.889 L 243.866 365.400 243.933 363.853 C 243.990 362.545,243.760 362.066,242.447 360.753 L 240.894 359.200 176.985 359.200 L 113.076 359.200 111.538 360.817 M242.233 366.811 C 241.592 367.465,241.249 368.000,241.471 368.000 C 241.875 368.000,242.824 367.047,243.363 366.100 C 243.802 365.328,243.505 365.515,242.233 366.811 " stroke="none" fill="#66b4e8" fill-rule="evenodd"></path><path id="path1" d="M15.800 49.200 C 15.664 49.420,15.201 49.600,14.771 49.600 C 14.341 49.600,13.677 49.759,13.295 49.953 C 12.913 50.148,12.060 50.553,11.400 50.853 C 10.740 51.154,9.660 51.894,9.000 52.498 C 8.340 53.102,7.647 53.597,7.460 53.598 C 7.000 53.601,3.600 57.228,3.600 57.717 C 3.600 57.931,3.285 58.399,2.900 58.757 C 1.934 59.656,1.200 61.039,1.200 61.961 C 1.200 62.386,0.975 62.808,0.700 62.900 C -0.036 63.145,-0.036 306.455,0.700 306.700 C 0.975 306.792,1.200 307.302,1.200 307.833 C 1.200 308.365,1.380 308.800,1.600 308.800 C 1.820 308.800,2.000 309.025,2.001 309.300 C 2.001 309.575,2.541 310.430,3.200 311.200 C 3.859 311.970,4.399 312.741,4.399 312.913 C 4.400 313.257,7.048 316.000,7.379 316.000 C 7.491 316.000,8.532 316.719,9.692 317.598 C 10.851 318.477,12.205 319.197,12.700 319.198 C 13.195 319.199,13.600 319.380,13.600 319.600 C 13.600 319.820,14.140 320.000,14.800 320.000 C 15.460 320.000,16.000 320.180,16.000 320.400 C 16.000 320.665,36.600 320.800,77.000 320.800 L 138.000 320.800 138.000 335.600 L 138.000 350.400 125.624 350.400 C 117.804 350.400,113.156 350.547,113.000 350.800 C 112.864 351.020,112.259 351.200,111.656 351.200 C 110.460 351.200,108.408 352.020,108.403 352.500 C 108.401 352.665,108.125 352.800,107.789 352.800 C 106.996 352.800,103.600 356.196,103.600 356.989 C 103.600 357.325,103.420 357.600,103.200 357.600 C 102.980 357.600,102.800 357.960,102.800 358.400 C 102.800 358.840,102.620 359.200,102.400 359.200 C 102.156 359.200,102.000 361.067,102.000 364.000 C 102.000 366.933,102.156 368.800,102.400 368.800 C 102.620 368.800,102.800 369.126,102.800 369.525 C 102.800 369.923,103.160 370.636,103.600 371.108 C 104.040 371.580,104.400 372.085,104.400 372.231 C 104.400 372.696,106.836 374.640,108.342 375.376 C 109.144 375.768,110.113 376.249,110.495 376.444 C 111.495 376.957,243.200 376.913,243.200 376.400 C 243.200 376.180,243.740 376.000,244.400 376.000 C 245.060 376.000,245.600 375.842,245.600 375.649 C 245.600 375.455,246.125 375.079,246.768 374.813 C 247.991 374.307,250.400 371.917,250.400 371.211 C 250.400 370.985,250.580 370.800,250.800 370.800 C 251.020 370.800,251.200 370.440,251.200 370.000 C 251.200 369.560,251.380 369.200,251.600 369.200 C 251.820 369.200,252.000 368.480,252.000 367.600 C 252.000 366.720,252.180 366.000,252.400 366.000 C 252.620 366.000,252.800 365.010,252.800 363.800 C 252.800 362.590,252.620 361.600,252.400 361.600 C 252.180 361.600,252.000 361.065,252.000 360.412 C 252.000 358.259,247.848 352.800,246.211 352.800 C 245.875 352.800,245.600 352.620,245.600 352.400 C 245.600 352.180,245.240 352.000,244.800 352.000 C 244.360 352.000,244.000 351.820,244.000 351.600 C 244.000 351.380,243.280 351.200,242.400 351.200 C 241.520 351.200,240.800 351.020,240.800 350.800 C 240.800 350.542,236.400 350.400,228.400 350.400 L 216.000 350.400 216.000 335.600 L 216.000 320.800 239.400 320.800 L 262.800 320.800 262.800 339.976 C 262.800 352.329,262.942 359.241,263.200 359.400 C 263.420 359.536,263.600 360.256,263.600 361.000 C 263.600 361.744,263.780 362.464,264.000 362.600 C 264.220 362.736,264.400 363.197,264.400 363.624 C 264.400 364.051,264.580 364.400,264.800 364.400 C 265.020 364.400,265.200 364.760,265.200 365.200 C 265.200 365.640,265.380 366.000,265.600 366.000 C 265.820 366.000,266.000 366.320,266.000 366.712 C 266.000 367.103,266.360 367.683,266.800 368.000 C 267.240 368.317,267.600 368.786,267.600 369.042 C 267.600 369.298,268.365 370.163,269.300 370.964 C 270.235 371.766,271.399 372.777,271.886 373.211 C 272.373 373.645,273.003 374.006,273.286 374.013 C 273.569 374.020,274.149 374.290,274.576 374.613 C 275.004 374.936,275.679 375.200,276.076 375.200 C 276.474 375.200,276.800 375.380,276.800 375.600 C 276.800 375.820,277.329 376.000,277.976 376.000 C 278.623 376.000,279.264 376.180,279.400 376.400 C 279.742 376.953,368.400 376.953,368.400 376.400 C 368.400 376.180,369.030 376.000,369.800 376.000 C 370.570 376.000,371.200 375.820,371.200 375.600 C 371.200 375.380,371.569 375.200,372.019 375.200 C 373.889 375.200,379.847 370.443,381.168 367.895 C 381.480 367.293,381.885 366.800,382.068 366.800 C 382.250 366.800,382.400 366.440,382.400 366.000 C 382.400 365.560,382.580 365.200,382.800 365.200 C 383.020 365.200,383.200 364.840,383.200 364.400 C 383.200 363.960,383.380 363.600,383.600 363.600 C 383.820 363.600,384.000 363.060,384.000 362.400 C 384.000 361.740,384.180 361.200,384.400 361.200 C 384.665 361.200,384.800 333.600,384.800 279.200 C 384.800 224.800,384.665 197.200,384.400 197.200 C 384.180 197.200,384.000 196.660,384.000 196.000 C 384.000 195.340,383.820 194.800,383.600 194.800 C 383.380 194.800,383.200 194.440,383.200 194.000 C 383.200 193.560,383.020 193.200,382.800 193.200 C 382.580 193.200,382.400 192.930,382.400 192.600 C 382.400 192.270,382.220 192.000,382.000 192.000 C 381.780 192.000,381.600 191.727,381.600 191.394 C 381.600 190.551,376.023 185.054,374.472 184.368 C 373.772 184.058,373.200 183.669,373.200 183.502 C 373.200 183.336,372.840 183.200,372.400 183.200 C 371.960 183.200,371.600 183.020,371.600 182.800 C 371.600 182.580,371.060 182.400,370.400 182.400 C 369.740 182.400,369.200 182.220,369.200 182.000 C 369.200 181.749,366.600 181.600,362.200 181.600 L 355.200 181.600 355.200 125.224 C 355.200 88.071,355.064 68.763,354.800 68.600 C 354.580 68.464,354.400 67.463,354.400 66.376 C 354.400 65.289,354.220 64.400,354.000 64.400 C 353.780 64.400,353.600 64.057,353.600 63.638 C 353.600 62.680,352.030 59.612,351.100 58.753 C 350.715 58.397,350.400 57.898,350.400 57.644 C 350.400 57.009,346.140 52.800,345.497 52.800 C 345.211 52.800,344.717 52.440,344.400 52.000 C 344.083 51.560,343.503 51.200,343.112 51.200 C 342.720 51.200,342.400 51.020,342.400 50.800 C 342.400 50.580,342.040 50.400,341.600 50.400 C 341.160 50.400,340.800 50.220,340.800 50.000 C 340.800 49.780,340.260 49.600,339.600 49.600 C 338.940 49.600,338.400 49.420,338.400 49.200 C 338.400 48.934,284.408 48.800,177.224 48.800 C 70.204 48.800,15.964 48.934,15.800 49.200 M336.143 57.798 C 340.117 59.004,343.738 62.385,345.178 66.234 C 345.993 68.411,346.000 68.914,346.000 125.215 L 346.000 182.000 342.600 182.000 L 339.200 182.000 339.200 126.546 C 339.200 65.896,339.322 68.922,336.773 66.373 C 334.238 63.838,345.157 64.000,177.000 64.000 C 8.655 64.000,19.767 63.833,17.200 66.400 C 14.656 68.944,14.800 62.853,14.800 167.777 L 14.800 264.000 11.400 264.000 L 8.000 264.000 8.000 166.460 C 8.000 97.465,8.127 68.521,8.434 67.560 C 10.039 62.528,13.162 59.365,18.200 57.667 C 20.355 56.941,333.743 57.070,336.143 57.798 M331.200 127.000 L 331.200 182.000 322.626 182.000 L 314.052 182.000 313.926 175.069 C 313.779 166.995,313.019 164.675,309.686 162.133 C 306.582 159.766,307.564 159.835,275.000 159.683 C 241.970 159.528,240.839 159.589,237.921 161.703 C 233.111 165.187,232.805 166.503,232.802 183.700 L 232.800 197.200 225.800 197.200 L 218.800 197.200 218.800 184.020 C 218.800 165.833,218.207 163.811,212.000 160.850 L 209.800 159.800 177.972 159.800 L 146.143 159.800 143.783 161.007 C 141.344 162.254,138.775 165.070,138.168 167.160 C 138.003 167.732,137.762 174.680,137.633 182.600 L 137.400 197.000 129.829 197.109 C 124.040 197.193,122.182 197.098,121.935 196.709 C 121.758 196.429,121.606 189.900,121.597 182.200 C 121.579 165.170,121.055 163.442,115.097 160.748 L 113.000 159.800 81.200 159.800 C 45.576 159.800,47.885 159.618,44.369 162.705 C 41.100 165.576,41.025 165.990,40.800 182.400 L 40.600 197.000 31.800 197.000 L 23.000 197.000 22.897 135.000 C 22.841 100.900,22.880 72.775,22.985 72.500 C 23.136 72.101,54.346 72.000,177.187 72.000 L 331.200 72.000 331.200 127.000 M300.443 80.409 C 286.955 83.243,281.434 99.757,290.672 109.636 C 302.419 122.199,322.426 113.818,321.528 96.710 C 320.977 86.210,310.689 78.256,300.443 80.409 M49.400 86.761 C 39.010 89.405,37.905 104.016,47.757 108.475 C 51.019 109.952,72.378 109.907,75.383 108.417 C 84.162 104.065,84.391 92.567,75.800 87.537 C 74.128 86.558,52.674 85.927,49.400 86.761 M306.389 88.222 C 316.487 90.266,316.230 105.314,306.058 107.662 C 295.201 110.168,289.330 95.449,298.726 89.282 C 299.796 88.580,303.516 87.613,304.400 87.808 C 304.730 87.881,305.625 88.067,306.389 88.222 M73.435 95.322 C 74.789 96.897,74.750 99.140,73.345 100.545 L 72.291 101.600 61.381 101.600 L 50.471 101.600 49.436 100.369 C 47.737 98.351,48.243 95.780,50.600 94.454 C 51.150 94.145,54.698 94.034,61.935 94.102 L 72.470 94.200 73.435 95.322 M214.508 94.281 C 212.060 94.754,211.157 98.648,213.055 100.545 C 215.580 103.071,225.658 101.903,226.682 98.966 C 228.041 95.068,222.156 92.804,214.508 94.281 M237.697 94.581 C 235.341 95.635,234.985 99.144,237.069 100.783 C 237.994 101.510,238.677 101.600,243.293 101.600 L 248.479 101.600 249.640 100.358 C 251.156 98.734,251.154 97.210,249.634 95.506 L 248.468 94.200 243.734 94.099 C 240.267 94.025,238.651 94.154,237.697 94.581 M262.000 94.282 C 259.439 95.219,258.683 98.788,260.658 100.619 C 261.671 101.558,261.945 101.600,267.023 101.600 L 272.329 101.600 273.364 100.369 C 275.155 98.242,274.612 95.582,272.181 94.566 C 270.842 94.007,263.327 93.798,262.000 94.282 M120.800 121.168 C 107.841 123.810,107.522 141.470,120.360 145.566 C 122.696 146.311,233.263 146.154,235.743 145.402 C 247.089 141.960,248.265 127.209,237.617 121.905 L 235.800 121.000 179.000 120.941 C 147.760 120.909,121.570 121.011,120.800 121.168 M129.400 133.400 L 129.400 138.200 126.262 138.318 C 121.666 138.490,118.994 137.021,118.771 134.200 C 118.427 129.850,120.358 128.459,126.600 128.556 L 129.400 128.600 129.400 133.400 M233.544 128.649 C 237.807 129.501,238.611 134.984,234.841 137.495 L 233.482 138.400 185.541 138.400 L 137.600 138.400 137.600 133.400 L 137.600 128.400 184.950 128.400 C 210.993 128.400,232.860 128.512,233.544 128.649 M108.600 167.599 C 108.789 167.906,106.372 170.893,104.392 172.800 C 104.049 173.131,90.094 188.634,85.800 193.455 C 83.600 195.925,81.599 197.958,81.354 197.973 C 81.109 197.988,78.503 195.345,75.563 192.100 C 72.623 188.855,70.124 186.110,70.009 186.000 C 69.894 185.890,68.270 184.090,66.400 182.000 C 64.530 179.910,62.910 178.110,62.800 178.000 C 62.635 177.835,57.388 172.024,54.700 169.029 C 53.013 167.149,52.278 167.200,81.176 167.200 C 98.835 167.200,108.439 167.340,108.600 167.599 M205.394 167.590 C 205.581 167.892,203.626 170.426,201.992 172.000 C 201.789 172.196,191.676 183.405,183.065 192.980 C 180.680 195.631,178.511 197.851,178.244 197.914 C 177.977 197.977,175.788 195.831,173.379 193.145 C 170.971 190.459,168.640 187.883,168.200 187.422 C 167.760 186.961,165.870 184.877,164.000 182.791 C 162.130 180.706,160.510 178.910,160.400 178.800 C 160.290 178.690,158.580 176.801,156.600 174.602 C 154.620 172.403,152.506 170.063,151.902 169.402 C 151.298 168.741,150.803 167.975,150.802 167.700 C 150.800 167.066,205.003 166.957,205.394 167.590 M300.791 167.700 C 300.786 167.975,300.201 168.843,299.491 169.629 C 298.781 170.414,295.967 173.519,293.238 176.529 L 288.277 182.000 285.958 182.000 C 279.398 182.000,272.908 184.828,268.826 189.466 L 267.148 191.372 265.667 189.786 C 264.348 188.373,254.923 177.945,250.678 173.200 C 249.792 172.210,248.356 170.652,247.487 169.737 C 246.618 168.823,246.028 167.878,246.177 167.637 C 246.595 166.961,300.803 167.024,300.791 167.700 M71.750 199.349 C 73.528 201.300,75.194 203.186,75.452 203.538 C 75.959 204.232,75.635 204.726,72.256 208.401 C 71.345 209.392,69.070 211.910,67.200 213.998 C 65.330 216.086,63.609 217.999,63.376 218.250 C 63.143 218.500,59.829 222.147,56.012 226.353 C 52.194 230.559,48.920 234.000,48.736 234.000 C 48.363 234.000,48.262 174.672,48.634 174.300 C 48.762 174.171,53.288 178.956,58.692 184.933 C 64.096 190.910,69.972 197.397,71.750 199.349 M113.989 204.300 L 113.978 234.600 112.525 233.000 C 111.725 232.120,109.435 229.591,107.435 227.380 C 103.435 222.957,99.984 219.144,92.067 210.400 C 89.179 207.210,86.813 204.420,86.809 204.200 C 86.799 203.687,86.757 203.734,97.800 191.594 C 102.153 186.808,107.361 181.053,110.554 177.500 C 112.283 175.575,113.766 174.000,113.849 174.000 C 113.932 174.000,113.995 187.635,113.989 204.300 M149.999 178.803 C 151.869 180.891,153.671 182.870,154.005 183.200 C 154.339 183.530,157.846 187.400,161.797 191.800 C 165.749 196.200,169.706 200.580,170.591 201.534 C 171.476 202.488,172.328 203.495,172.485 203.771 C 172.823 204.369,172.968 204.200,158.228 220.434 C 157.113 221.663,155.568 223.373,154.796 224.234 C 148.602 231.141,145.616 234.282,145.424 234.091 C 145.116 233.783,145.139 174.594,145.448 174.286 C 145.729 174.004,145.492 173.768,149.999 178.803 M210.787 204.300 L 210.775 234.600 209.733 233.400 C 208.832 232.361,199.326 221.849,198.191 220.637 C 194.072 216.235,183.602 204.388,183.609 204.138 C 183.619 203.789,184.118 203.212,189.947 196.818 C 191.846 194.735,194.390 191.931,195.600 190.587 C 196.810 189.243,199.255 186.537,201.033 184.572 C 202.811 182.607,205.676 179.425,207.398 177.500 C 209.121 175.575,210.591 174.000,210.665 174.000 C 210.739 174.000,210.794 187.635,210.787 204.300 M244.642 178.012 C 247.341 181.002,251.241 185.317,258.728 193.600 L 263.971 199.400 263.971 203.800 C 263.972 209.243,264.702 208.040,254.600 219.240 C 249.980 224.362,245.030 229.860,243.600 231.459 C 241.511 233.793,240.947 234.230,240.728 233.682 C 240.382 232.815,240.312 175.495,240.656 174.599 C 240.947 173.839,240.622 173.560,244.642 178.012 M306.400 178.224 L 306.400 182.000 302.767 182.000 C 298.481 182.000,298.490 182.231,302.589 177.637 C 306.375 173.392,306.400 173.396,306.400 178.224 M366.943 190.598 C 371.482 191.975,374.338 194.940,375.960 199.960 C 376.578 201.871,376.584 356.504,375.966 358.440 C 374.637 362.605,372.503 365.176,368.800 367.073 L 366.600 368.200 324.000 368.200 L 281.400 368.200 279.513 367.262 C 276.683 365.856,274.309 363.556,272.985 360.941 L 271.800 358.600 271.800 279.200 L 271.800 199.800 272.929 197.600 C 274.771 194.009,277.079 191.941,280.575 190.747 C 283.441 189.769,363.753 189.630,366.943 190.598 M286.000 197.244 C 283.580 197.931,282.101 198.765,281.018 200.051 C 278.646 202.871,278.800 197.370,278.800 279.253 L 278.800 354.409 279.645 356.207 C 280.572 358.178,282.237 359.773,284.400 360.761 C 286.086 361.531,356.451 361.964,361.153 361.233 C 365.676 360.530,368.328 357.933,369.169 353.383 C 369.745 350.270,369.776 208.259,369.202 205.155 C 367.902 198.129,365.075 196.803,351.400 196.807 C 338.508 196.811,336.512 197.535,333.422 203.327 C 328.898 211.809,318.347 211.665,314.430 203.067 C 313.449 200.912,310.572 198.220,308.542 197.557 C 306.601 196.923,288.040 196.665,286.000 197.244 M40.557 205.433 C 40.691 205.781,40.800 213.579,40.800 222.761 C 40.800 243.246,41.176 244.749,46.978 247.451 L 49.000 248.392 81.251 248.396 C 116.726 248.400,114.861 248.527,117.833 245.918 C 121.814 242.422,122.000 241.318,122.000 221.172 L 122.000 204.783 129.700 204.891 L 137.400 205.000 137.613 222.600 C 137.730 232.280,137.985 240.650,138.180 241.200 C 139.166 243.977,141.744 246.548,144.919 247.917 C 146.796 248.727,209.822 248.601,211.778 247.783 C 213.666 246.994,216.658 244.242,217.370 242.640 C 218.734 239.570,218.800 238.602,218.800 221.731 L 218.800 204.781 225.700 204.891 L 232.600 205.000 232.800 222.600 C 233.024 242.323,232.987 242.070,236.101 245.236 C 239.052 248.235,239.869 248.400,251.763 248.400 C 265.129 248.400,263.600 247.361,263.600 256.443 L 263.600 264.000 143.200 264.000 L 22.800 264.000 22.800 234.667 C 22.800 218.533,22.920 205.213,23.067 205.067 C 23.707 204.427,40.304 204.774,40.557 205.433 M306.166 205.042 C 306.514 205.176,307.384 206.386,308.099 207.731 C 314.878 220.480,333.116 220.455,339.921 207.688 C 340.625 206.366,341.486 205.176,341.834 205.042 C 343.098 204.557,360.613 204.773,361.120 205.280 C 361.478 205.638,361.600 210.010,361.600 222.487 L 361.600 239.214 351.559 239.107 L 341.519 239.000 340.914 237.209 C 335.692 221.757,312.696 221.750,307.488 237.200 L 306.881 239.000 296.740 239.000 L 286.600 239.000 286.496 222.446 C 286.420 210.559,286.519 205.739,286.844 205.346 C 287.317 204.777,304.761 204.503,306.166 205.042 M82.526 211.216 C 82.840 211.665,83.888 212.880,84.853 213.916 C 85.819 214.952,89.845 219.400,93.800 223.800 C 97.755 228.200,101.263 232.070,101.596 232.400 C 104.062 234.843,108.733 240.333,108.524 240.543 C 108.126 240.940,54.000 240.849,54.000 240.450 C 54.000 240.107,56.688 236.959,60.360 233.000 C 61.381 231.900,65.385 227.490,69.259 223.200 C 73.132 218.910,77.217 214.410,78.336 213.200 C 79.456 211.990,80.378 210.865,80.386 210.700 C 80.416 210.063,81.983 210.441,82.526 211.216 M179.816 211.700 C 180.414 212.415,182.365 214.613,184.152 216.583 C 185.938 218.554,189.362 222.334,191.760 224.983 C 194.158 227.633,196.948 230.703,197.960 231.806 C 201.944 236.149,205.600 240.340,205.600 240.564 C 205.600 240.694,193.270 240.800,178.200 240.800 C 163.130 240.800,150.801 240.665,150.803 240.500 C 150.806 240.191,153.562 237.018,159.561 230.415 C 161.453 228.334,163.990 225.537,165.200 224.200 C 168.843 220.176,174.500 213.929,176.151 212.110 C 178.012 210.058,178.406 210.014,179.816 211.700 M263.907 231.100 L 263.800 240.600 254.864 240.708 C 249.695 240.770,245.985 240.664,246.064 240.456 C 246.172 240.169,249.816 235.967,251.805 233.834 C 252.028 233.595,254.611 230.745,257.544 227.500 C 260.478 224.255,263.134 221.600,263.446 221.600 C 263.924 221.600,263.997 223.109,263.907 231.100 M328.400 234.064 C 333.000 236.592,335.144 240.883,334.014 245.300 C 331.387 255.566,317.382 255.891,314.473 245.754 C 312.259 238.042,321.510 230.278,328.400 234.064 M307.043 248.300 C 308.215 253.284,313.047 258.113,319.200 260.449 C 322.874 261.845,329.768 260.847,333.661 258.357 C 337.139 256.132,341.598 250.142,341.600 247.693 C 341.600 247.294,343.718 247.209,351.500 247.293 L 361.400 247.400 361.501 299.870 C 361.593 347.176,361.541 352.402,360.973 352.970 C 360.233 353.709,288.360 353.942,287.200 353.208 C 286.597 352.827,286.009 250.516,286.596 248.100 L 286.815 247.200 296.800 247.200 L 306.785 247.200 307.043 248.300 M301.471 267.802 C 290.206 270.898,288.641 286.130,299.062 291.260 L 301.784 292.600 323.992 292.600 L 346.200 292.600 348.400 291.561 C 359.505 286.317,357.964 270.546,346.074 267.748 C 342.820 266.982,304.284 267.029,301.471 267.802 M263.100 271.852 L 264.000 272.093 264.000 292.249 L 264.000 312.405 140.900 312.303 L 17.800 312.200 16.000 311.242 C 11.875 309.048,9.850 306.704,8.427 302.479 C 7.594 300.008,7.094 272.640,7.867 271.867 C 8.199 271.535,261.861 271.520,263.100 271.852 M309.200 280.041 L 309.200 284.882 305.767 284.741 C 301.501 284.566,300.000 283.376,300.000 280.167 C 300.000 276.610,301.785 275.204,306.300 275.201 L 309.200 275.200 309.200 280.041 M345.588 275.712 C 348.147 277.006,349.031 280.144,347.485 282.441 C 345.777 284.978,345.634 285.000,330.800 285.000 L 317.400 285.000 317.288 280.100 L 317.175 275.200 330.888 275.206 C 341.053 275.210,344.856 275.341,345.588 275.712 M172.951 280.130 C 159.508 285.183,162.721 304.600,177.000 304.600 C 188.556 304.600,193.950 291.297,185.728 283.076 C 182.629 279.976,176.884 278.652,172.951 280.130 M180.447 288.753 C 183.769 292.075,181.710 297.000,177.000 297.000 C 174.899 297.000,174.641 296.894,173.369 295.506 C 168.959 290.694,175.831 284.137,180.447 288.753 M301.400 299.982 C 290.189 302.939,288.689 318.358,299.114 323.478 L 301.400 324.600 324.000 324.600 L 346.600 324.600 348.864 323.488 C 358.336 318.837,358.299 305.716,348.800 300.742 L 347.000 299.800 324.800 299.733 C 312.590 299.696,302.060 299.808,301.400 299.982 M309.200 312.200 L 309.200 317.200 306.787 317.200 C 302.265 317.200,299.994 315.534,300.009 312.225 C 300.024 308.804,302.108 307.244,306.700 307.216 L 309.200 307.200 309.200 312.200 M345.404 307.776 C 349.112 309.325,349.232 314.701,345.597 316.478 C 344.366 317.080,342.594 317.164,330.700 317.181 L 317.200 317.200 317.200 312.200 L 317.200 307.200 330.613 307.200 C 341.381 307.200,344.297 307.314,345.404 307.776 M207.505 335.900 L 207.400 351.400 177.000 351.400 L 146.600 351.400 146.495 336.401 C 146.437 328.152,146.477 321.177,146.582 320.901 C 146.734 320.506,153.181 320.400,177.192 320.400 L 207.609 320.400 207.505 335.900 M316.943 331.984 C 314.598 332.966,314.086 336.147,315.969 338.031 L 317.138 339.200 324.200 339.200 L 331.262 339.200 332.431 338.031 C 333.935 336.527,334.015 334.528,332.636 332.922 L 331.671 331.800 324.736 331.712 C 320.921 331.664,317.414 331.786,316.943 331.984 M242.447 360.753 C 244.940 363.246,244.226 366.826,240.963 368.190 C 238.745 369.116,115.255 369.116,113.037 368.190 C 109.795 366.835,109.094 363.386,111.538 360.817 L 113.076 359.200 176.985 359.200 L 240.894 359.200 242.447 360.753 " stroke="none" fill="#050607" fill-rule="evenodd"></path><path id="path2" d="M23.385 72.899 C 23.280 73.175,23.241 101.120,23.297 135.000 L 23.400 196.600 31.900 196.708 L 40.400 196.816 40.400 182.620 C 40.400 164.183,41.133 162.277,49.228 159.661 C 51.198 159.025,111.276 159.005,113.240 159.640 C 116.932 160.833,119.555 162.853,120.747 165.422 C 121.047 166.070,121.452 166.913,121.647 167.295 C 121.841 167.677,122.000 174.472,122.000 182.395 L 122.000 196.800 129.586 196.800 L 137.172 196.800 137.286 182.300 C 137.396 168.349,137.433 167.732,138.270 166.000 C 139.697 163.049,142.481 160.771,146.028 159.651 C 147.997 159.029,208.096 159.013,210.040 159.634 C 218.059 162.192,218.546 163.434,218.800 182.000 L 219.000 196.600 225.800 196.600 L 232.600 196.600 232.800 181.800 C 233.021 165.419,233.030 165.365,235.863 162.752 C 239.900 159.029,238.325 159.171,273.868 159.326 C 307.672 159.473,306.601 159.407,309.434 161.547 C 313.534 164.646,314.400 167.125,314.400 175.755 L 314.400 182.017 322.500 181.908 L 330.600 181.800 330.600 127.200 L 330.600 72.600 177.088 72.499 C 54.487 72.419,23.537 72.500,23.385 72.899 M307.754 80.041 C 324.783 84.608,327.277 106.574,311.645 114.313 C 300.374 119.893,286.795 111.955,285.716 99.156 C 284.729 87.445,296.686 77.074,307.754 80.041 M76.544 87.600 C 85.110 92.788,84.509 104.201,75.428 108.801 L 73.456 109.800 61.428 109.800 C 49.601 109.800,49.368 109.784,47.506 108.859 C 39.289 104.775,37.969 94.127,44.985 88.529 C 48.032 86.098,48.622 86.014,62.017 86.111 L 74.233 86.200 76.544 87.600 M224.890 94.100 C 228.110 95.931,228.264 99.897,225.178 101.509 C 223.271 102.506,213.872 101.997,212.631 100.830 C 210.770 99.080,211.341 95.477,213.685 94.184 C 214.941 93.490,223.702 93.425,224.890 94.100 M248.851 94.227 C 251.402 95.545,251.765 99.117,249.540 100.989 C 248.237 102.085,239.825 102.522,237.445 101.617 C 234.558 100.519,234.485 96.112,237.326 94.380 C 239.023 93.345,246.943 93.240,248.851 94.227 M272.514 94.100 C 275.452 95.468,275.630 100.054,272.800 101.483 C 270.713 102.537,261.858 102.166,260.431 100.964 C 258.347 99.212,258.808 95.551,261.285 94.184 C 262.534 93.494,271.076 93.430,272.514 94.100 M237.767 121.575 C 248.938 127.116,247.633 142.084,235.640 145.960 C 234.679 146.271,217.736 146.400,177.755 146.400 L 121.230 146.400 118.929 145.539 C 107.213 141.155,108.107 123.728,120.200 120.769 C 120.860 120.607,147.140 120.503,178.600 120.538 L 235.800 120.600 237.767 121.575 M287.300 205.465 C 286.911 205.622,286.800 209.354,286.800 222.233 L 286.800 238.800 296.800 238.800 C 306.282 238.800,306.800 238.761,306.800 238.056 C 306.800 236.046,312.198 228.400,313.618 228.400 C 313.797 228.400,314.181 228.175,314.471 227.900 C 317.529 225.008,325.055 224.100,330.200 226.003 C 335.566 227.987,341.600 234.356,341.600 238.034 C 341.600 238.768,342.014 238.800,351.400 238.800 L 361.200 238.800 361.200 222.774 C 361.200 212.491,361.052 206.470,360.786 205.974 C 359.825 204.177,340.800 205.006,340.800 206.845 C 340.800 207.606,337.678 211.836,335.993 213.359 C 327.468 221.060,312.473 218.086,307.580 207.725 C 307.010 206.517,306.265 205.557,305.800 205.430 C 304.803 205.157,287.984 205.189,287.300 205.465 M8.000 285.934 C 8.000 305.918,9.453 309.222,19.446 311.950 C 20.648 312.279,53.785 312.400,142.146 312.400 L 263.200 312.400 263.200 292.200 L 263.200 272.000 135.600 272.000 L 8.000 272.000 8.000 285.934 M179.705 279.379 C 193.907 282.773,193.408 301.849,179.031 305.189 C 165.178 308.407,158.073 286.276,171.102 280.492 C 174.689 278.900,176.643 278.648,179.705 279.379 M174.800 288.318 C 173.168 289.421,172.825 290.094,172.825 292.200 C 172.825 296.309,177.082 298.186,180.086 295.401 C 183.910 291.855,179.100 285.411,174.800 288.318 M147.200 336.000 L 147.200 351.200 177.000 351.200 L 206.800 351.200 206.800 336.000 L 206.800 320.800 177.000 320.800 L 147.200 320.800 147.200 336.000 M112.338 360.502 C 110.006 362.473,109.807 364.515,111.747 366.572 L 113.094 368.000 177.071 368.000 L 241.048 368.000 242.324 366.753 C 244.163 364.955,244.114 362.941,242.187 361.013 L 240.773 359.600 177.087 359.602 L 113.400 359.604 112.338 360.502 " stroke="none" fill="#e9f2fa" fill-rule="evenodd"></path><path id="path3" d="M137.600 132.967 C 137.600 135.039,137.709 137.019,137.843 137.367 C 138.151 138.169,231.571 138.352,233.772 137.555 C 236.740 136.479,237.674 132.189,235.371 130.208 L 234.200 129.201 185.900 129.200 L 137.600 129.200 137.600 132.967 M54.867 168.369 C 54.940 168.573,56.458 170.328,58.241 172.269 C 60.023 174.211,63.516 178.050,66.003 180.800 C 74.445 190.135,77.396 193.382,79.374 195.510 L 81.347 197.633 82.174 196.706 C 85.568 192.898,86.946 191.366,89.827 188.200 C 91.629 186.220,95.690 181.722,98.851 178.205 C 102.013 174.688,105.275 171.089,106.100 170.208 C 106.925 169.326,107.600 168.468,107.600 168.302 C 107.600 168.136,95.705 168.000,81.167 168.000 C 65.174 168.000,54.786 168.146,54.867 168.369 M152.343 169.100 C 152.781 169.705,154.009 171.112,155.070 172.228 C 156.132 173.343,158.347 175.773,159.993 177.628 C 161.639 179.482,163.259 181.271,163.593 181.601 C 163.927 181.932,165.010 183.107,166.000 184.212 C 171.140 189.948,174.401 193.556,176.207 195.506 L 178.215 197.673 182.266 193.137 C 184.494 190.641,186.977 187.880,187.785 187.000 C 188.593 186.120,189.827 184.760,190.527 183.979 C 193.026 181.189,198.625 174.979,200.063 173.403 C 200.867 172.522,202.172 171.090,202.963 170.222 C 203.753 169.354,204.400 168.499,204.400 168.322 C 204.400 168.145,192.508 168.000,177.973 168.000 L 151.546 168.000 152.343 169.100 M247.200 168.300 C 247.201 168.656,247.986 169.583,252.068 174.046 C 253.756 175.891,255.517 177.840,255.983 178.378 C 257.322 179.925,262.383 185.492,264.879 188.162 L 267.157 190.600 269.079 188.577 C 273.452 183.972,278.921 181.620,285.284 181.606 C 288.178 181.600,288.115 181.640,291.601 177.600 C 292.075 177.050,293.798 175.142,295.428 173.359 C 297.058 171.576,298.767 169.641,299.225 169.059 L 300.058 168.000 273.629 168.000 C 259.093 168.000,247.200 168.135,247.200 168.300 M240.800 204.055 L 240.800 233.767 242.100 232.368 C 242.815 231.599,244.749 229.447,246.399 227.585 C 248.048 225.723,250.235 223.300,251.258 222.200 C 252.281 221.100,253.902 219.312,254.859 218.227 C 255.817 217.141,257.140 215.701,257.800 215.026 C 258.460 214.351,259.931 212.719,261.070 211.399 L 263.140 209.000 263.240 204.258 L 263.340 199.515 261.128 197.058 C 259.912 195.706,258.396 193.970,257.760 193.200 C 257.124 192.430,255.973 191.167,255.202 190.394 C 254.431 189.621,252.361 187.371,250.602 185.394 C 248.842 183.417,246.657 180.990,245.746 180.000 C 244.834 179.010,243.575 177.570,242.947 176.800 C 242.319 176.030,241.579 175.162,241.303 174.871 C 240.899 174.447,240.800 180.192,240.800 204.055 M48.806 204.025 L 48.812 233.400 51.106 230.991 C 52.368 229.666,54.749 227.056,56.398 225.191 C 58.047 223.326,59.667 221.530,59.998 221.200 C 60.329 220.870,61.394 219.700,62.364 218.600 C 63.335 217.500,65.046 215.610,66.167 214.400 C 67.288 213.190,69.554 210.670,71.201 208.800 C 72.848 206.930,74.489 205.129,74.847 204.797 C 75.327 204.353,75.380 204.079,75.049 203.757 C 74.802 203.516,73.970 202.617,73.200 201.758 C 72.430 200.900,70.270 198.493,68.400 196.409 C 66.530 194.325,64.820 192.419,64.600 192.173 C 62.988 190.374,57.398 184.222,55.566 182.229 C 54.337 180.893,52.627 178.994,51.766 178.008 C 50.905 177.022,49.885 175.863,49.500 175.432 C 48.833 174.686,48.800 176.017,48.806 204.025 M145.600 204.090 L 145.600 233.552 147.700 231.279 C 148.855 230.029,150.070 228.735,150.400 228.403 C 150.730 228.070,152.350 226.271,154.000 224.404 C 155.650 222.537,157.540 220.451,158.200 219.769 C 158.860 219.086,159.929 217.914,160.576 217.164 C 161.768 215.781,168.086 208.753,170.821 205.769 L 172.315 204.137 170.853 202.569 C 170.049 201.706,167.612 199.020,165.438 196.600 C 163.264 194.180,160.116 190.690,158.443 188.843 C 154.504 184.498,155.173 185.240,150.642 180.200 C 148.466 177.780,146.442 175.536,146.143 175.214 C 145.685 174.721,145.600 179.257,145.600 204.090 M210.194 175.106 C 209.970 175.268,209.272 176.030,208.642 176.800 C 207.125 178.654,198.739 187.938,195.800 191.017 C 195.140 191.708,193.665 193.352,192.522 194.671 C 191.380 195.989,189.940 197.614,189.322 198.282 C 187.991 199.723,185.679 202.307,184.707 203.440 C 184.040 204.217,184.063 204.301,185.307 205.634 C 186.018 206.396,187.950 208.538,189.600 210.394 C 191.250 212.251,192.960 214.148,193.400 214.611 C 193.840 215.074,195.640 217.047,197.400 218.994 C 199.160 220.941,200.960 222.912,201.400 223.373 C 201.840 223.835,203.370 225.552,204.800 227.189 C 206.230 228.826,208.165 230.970,209.100 231.954 L 210.800 233.743 210.800 204.272 C 210.800 188.062,210.755 174.803,210.700 174.806 C 210.645 174.809,210.417 174.944,210.194 175.106 M302.863 178.089 L 299.926 181.400 302.811 181.518 C 306.327 181.663,306.058 181.964,305.917 178.038 L 305.800 174.777 302.863 178.089 M111.289 177.319 C 110.347 178.464,108.637 180.408,107.489 181.639 C 106.340 182.871,104.140 185.289,102.600 187.013 C 101.060 188.737,99.440 190.527,99.000 190.989 C 98.560 191.452,96.850 193.353,95.200 195.213 C 93.550 197.073,91.840 198.974,91.400 199.437 C 87.110 203.948,86.994 204.153,88.092 205.277 C 88.592 205.787,90.350 207.726,92.000 209.585 C 93.650 211.444,95.540 213.526,96.200 214.212 C 96.860 214.899,98.660 216.875,100.200 218.604 C 101.740 220.333,103.360 222.123,103.800 222.580 C 104.240 223.038,105.770 224.751,107.200 226.388 C 108.630 228.024,110.655 230.266,111.700 231.369 L 113.600 233.375 113.600 204.287 C 113.600 188.289,113.465 175.209,113.300 175.219 C 113.135 175.230,112.230 176.175,111.289 177.319 M80.333 211.541 C 80.221 211.828,77.766 214.581,72.800 219.988 C 72.250 220.587,70.450 222.587,68.800 224.433 C 67.150 226.279,64.971 228.692,63.958 229.795 C 62.945 230.898,61.415 232.583,60.558 233.541 C 59.701 234.498,57.969 236.388,56.709 237.741 L 54.418 240.200 67.809 240.305 C 75.174 240.363,87.269 240.363,94.687 240.305 L 108.174 240.200 106.787 238.786 C 106.024 238.008,103.780 235.578,101.801 233.386 C 99.821 231.194,98.107 229.310,97.993 229.200 C 97.878 229.090,96.618 227.659,95.192 226.019 C 93.767 224.380,91.880 222.293,91.000 221.382 C 88.582 218.879,83.070 212.769,82.477 211.936 C 81.942 211.182,80.572 210.930,80.333 211.541 M175.155 213.932 C 173.750 215.435,172.002 217.370,171.270 218.232 C 170.539 219.095,168.919 220.884,167.670 222.210 C 166.422 223.535,164.786 225.335,164.037 226.210 C 163.287 227.084,161.127 229.488,159.237 231.551 C 157.346 233.614,155.620 235.517,155.400 235.779 C 155.180 236.041,154.107 237.188,153.015 238.328 L 151.030 240.400 178.157 240.400 L 205.285 240.400 204.141 239.300 C 203.513 238.695,201.559 236.580,199.799 234.600 C 198.040 232.620,196.329 230.730,195.997 230.400 C 195.665 230.070,194.225 228.450,192.797 226.800 C 191.369 225.150,189.750 223.349,189.200 222.797 C 188.330 221.924,184.323 217.521,180.013 212.700 C 178.245 210.723,178.129 210.752,175.155 213.932 M262.158 223.100 C 261.738 223.485,260.227 225.150,258.800 226.800 C 257.373 228.450,255.935 230.070,255.603 230.400 C 255.271 230.730,254.206 231.900,253.234 233.000 C 252.263 234.100,250.324 236.215,248.924 237.700 L 246.379 240.400 254.790 240.400 L 263.200 240.400 263.200 231.400 C 263.200 226.450,263.138 222.400,263.061 222.400 C 262.985 222.400,262.579 222.715,262.158 223.100 M317.600 279.976 L 317.600 284.400 330.774 284.400 C 338.020 284.400,344.392 284.231,344.936 284.025 C 347.984 282.866,348.570 278.915,346.066 276.408 C 345.550 275.892,343.347 275.781,331.529 275.676 L 317.600 275.553 317.600 279.976 M317.600 312.215 L 317.600 316.430 331.635 316.315 L 345.670 316.200 346.635 315.078 C 348.169 313.294,347.859 309.914,346.035 308.513 C 345.565 308.152,341.796 308.022,331.500 308.013 L 317.600 308.000 317.600 312.215 " stroke="none" fill="#fbdb83" fill-rule="evenodd"></path><path id="path4" d="M239.300 23.792 C 239.025 24.108,238.800 24.644,238.800 24.983 C 238.800 25.322,238.620 25.600,238.400 25.600 C 238.180 25.600,238.000 25.960,238.000 26.400 C 238.000 26.840,237.858 27.200,237.683 27.200 C 237.509 27.200,236.699 27.830,235.882 28.600 C 235.066 29.370,234.129 30.000,233.799 30.000 C 233.470 30.000,233.200 30.180,233.200 30.400 C 233.200 30.620,232.744 30.800,232.187 30.800 C 231.631 30.800,231.068 31.079,230.937 31.419 C 230.646 32.178,231.860 33.170,233.100 33.187 C 233.595 33.194,234.000 33.350,234.000 33.532 C 234.000 33.715,234.495 34.120,235.100 34.432 C 236.543 35.177,237.682 36.340,238.300 37.700 C 239.554 40.459,239.764 40.800,240.204 40.800 C 240.461 40.800,240.911 40.077,241.202 39.194 C 242.093 36.494,245.716 33.200,247.795 33.200 C 248.645 33.200,248.800 33.015,248.800 32.000 C 248.800 31.236,248.596 30.800,248.238 30.800 C 246.205 30.800,242.242 27.274,241.365 24.685 C 240.883 23.265,240.067 22.911,239.300 23.792 M301.726 88.175 C 291.196 90.707,291.628 106.235,302.272 107.832 C 314.621 109.683,318.607 90.695,306.389 88.222 C 305.625 88.067,304.730 87.881,304.400 87.808 C 304.070 87.736,302.867 87.901,301.726 88.175 M367.024 118.924 C 365.676 119.751,364.400 121.140,364.400 121.782 C 364.400 122.122,364.220 122.400,364.000 122.400 C 363.780 122.400,363.600 123.210,363.600 124.200 C 363.600 125.190,363.780 126.000,364.000 126.000 C 364.220 126.000,364.400 126.360,364.400 126.800 C 364.400 127.240,364.580 127.600,364.800 127.600 C 365.020 127.600,365.200 127.857,365.200 128.171 C 365.200 129.191,367.558 130.000,370.528 130.000 C 372.071 130.000,373.222 129.889,373.086 129.752 C 372.776 129.442,373.785 128.400,374.395 128.400 C 374.644 128.400,374.736 128.220,374.600 128.000 C 374.464 127.780,374.543 127.600,374.776 127.600 C 375.009 127.600,375.200 127.240,375.200 126.800 C 375.200 126.360,375.380 126.000,375.600 126.000 C 375.820 126.000,376.000 125.370,376.000 124.600 C 376.000 123.830,375.820 123.200,375.600 123.200 C 375.380 123.200,375.194 122.705,375.187 122.100 C 375.170 120.756,373.925 119.175,372.817 119.091 C 372.368 119.057,372.000 118.888,372.000 118.715 C 372.000 118.221,367.888 118.393,367.024 118.924 M122.506 128.681 C 119.449 129.080,117.762 132.857,119.283 135.896 C 120.103 137.536,122.736 138.450,126.262 138.318 L 129.400 138.200 129.400 133.400 L 129.400 128.600 126.600 128.556 C 125.060 128.532,123.218 128.588,122.506 128.681 M137.600 128.800 C 137.600 129.064,153.967 129.200,185.900 129.200 L 234.200 129.201 235.371 130.208 C 237.674 132.189,236.740 136.479,233.772 137.555 C 231.890 138.237,138.140 138.183,137.865 137.500 C 137.744 137.201,137.650 137.282,137.632 137.700 C 137.602 138.363,140.138 138.400,185.541 138.400 L 233.482 138.400 234.841 137.495 C 238.611 134.984,237.807 129.501,233.544 128.649 C 231.357 128.211,137.600 128.359,137.600 128.800 M384.902 145.652 C 384.795 146.063,384.548 146.400,384.353 146.400 C 384.159 146.400,384.000 146.760,384.000 147.200 C 384.000 147.640,383.820 148.000,383.600 148.000 C 383.380 148.000,383.200 148.360,383.200 148.800 C 383.200 149.240,383.001 149.600,382.757 149.600 C 382.514 149.600,382.412 149.854,382.531 150.164 C 382.652 150.479,382.318 151.050,381.774 151.459 C 381.238 151.861,380.800 152.471,380.800 152.815 C 380.800 153.597,380.023 154.400,379.267 154.400 C 378.672 154.400,377.200 155.868,377.200 156.461 C 377.200 156.648,376.851 156.800,376.424 156.800 C 375.997 156.800,375.536 156.980,375.400 157.200 C 375.264 157.420,374.713 157.600,374.176 157.600 C 373.639 157.600,373.200 157.780,373.200 158.000 C 373.200 158.220,372.660 158.400,372.000 158.400 C 369.963 158.400,370.321 160.121,372.500 160.806 C 373.435 161.099,374.371 161.488,374.580 161.670 C 374.789 161.851,375.295 162.000,375.704 162.000 C 376.113 162.000,376.336 162.180,376.200 162.400 C 376.064 162.620,376.143 162.822,376.376 162.850 C 376.609 162.878,376.975 162.923,377.189 162.950 C 377.850 163.035,382.810 168.460,382.575 168.841 C 382.453 169.038,382.507 169.200,382.696 169.200 C 383.131 169.200,384.000 171.569,384.000 172.752 C 384.000 173.244,384.167 173.544,384.371 173.418 C 384.575 173.292,384.856 173.546,384.995 173.983 C 385.229 174.720,386.840 174.379,386.709 173.620 C 386.688 173.499,386.910 172.860,387.202 172.200 C 387.494 171.540,387.771 170.865,387.816 170.700 C 387.862 170.535,387.944 170.265,387.997 170.100 C 388.051 169.935,388.066 169.642,388.031 169.449 C 387.995 169.257,388.334 168.841,388.783 168.527 C 389.232 168.212,389.600 167.777,389.600 167.559 C 389.600 167.342,390.005 166.747,390.500 166.237 C 390.995 165.727,391.665 164.926,391.988 164.455 C 392.312 163.985,392.907 163.600,393.312 163.600 C 393.716 163.600,393.936 163.420,393.800 163.200 C 393.664 162.980,393.889 162.800,394.301 162.800 C 394.712 162.800,395.436 162.440,395.908 162.000 C 396.380 161.560,397.224 161.200,397.783 161.200 C 398.342 161.200,398.803 160.975,398.806 160.700 C 398.811 160.326,398.897 160.334,399.150 160.734 C 399.420 161.159,399.540 161.132,399.744 160.601 C 400.364 158.985,400.054 158.400,398.576 158.400 C 397.729 158.400,397.253 158.238,397.400 158.000 C 397.540 157.773,397.204 157.600,396.624 157.600 C 396.061 157.600,395.600 157.420,395.600 157.200 C 395.600 156.980,395.357 156.800,395.059 156.800 C 394.762 156.800,393.968 156.274,393.295 155.631 C 392.622 154.988,391.966 154.568,391.836 154.697 C 391.706 154.827,391.600 154.653,391.600 154.309 C 391.600 153.966,391.330 153.582,391.000 153.455 C 390.670 153.329,390.400 153.049,390.400 152.833 C 390.400 152.618,389.953 151.959,389.407 151.370 C 388.862 150.781,388.512 150.142,388.631 149.950 C 388.750 149.757,388.657 149.600,388.424 149.600 C 388.191 149.600,388.000 149.240,388.000 148.800 C 388.000 148.360,387.831 148.000,387.624 148.000 C 387.417 148.000,387.192 147.325,387.124 146.500 C 386.983 144.798,385.294 144.154,384.902 145.652 M54.000 167.725 C 54.000 168.013,54.315 168.600,54.700 169.029 C 57.388 172.024,62.635 177.835,62.800 178.000 C 62.910 178.110,64.530 179.910,66.400 182.000 C 68.270 184.090,69.894 185.890,70.009 186.000 C 70.124 186.110,72.623 188.855,75.563 192.100 C 78.503 195.345,81.109 197.988,81.354 197.973 C 81.599 197.958,83.600 195.925,85.800 193.455 C 90.094 188.634,104.049 173.131,104.392 172.800 C 106.372 170.893,108.789 167.906,108.600 167.599 C 108.190 166.936,54.000 167.060,54.000 167.725 M150.802 167.700 C 150.803 167.975,151.298 168.741,151.902 169.402 C 152.506 170.063,154.620 172.403,156.600 174.602 C 158.580 176.801,160.290 178.690,160.400 178.800 C 160.510 178.910,162.130 180.706,164.000 182.791 C 165.870 184.877,167.760 186.961,168.200 187.422 C 168.640 187.883,170.971 190.459,173.379 193.145 C 175.788 195.831,177.977 197.977,178.244 197.914 C 178.511 197.851,180.680 195.631,183.065 192.980 C 191.676 183.405,201.789 172.196,201.992 172.000 C 203.626 170.426,205.581 167.892,205.394 167.590 C 205.003 166.957,150.800 167.066,150.802 167.700 M246.177 167.637 C 246.028 167.878,246.618 168.823,247.487 169.737 C 248.356 170.652,249.792 172.210,250.678 173.200 C 254.923 177.945,264.348 188.373,265.667 189.786 L 267.148 191.372 268.826 189.466 C 272.908 184.828,279.398 182.000,285.958 182.000 L 288.277 182.000 293.238 176.529 C 295.967 173.519,298.781 170.414,299.491 169.629 C 300.201 168.843,300.786 167.975,300.791 167.700 C 300.803 167.024,246.595 166.961,246.177 167.637 M107.600 168.302 C 107.600 168.468,106.925 169.326,106.100 170.208 C 105.275 171.089,102.013 174.688,98.851 178.205 C 95.690 181.722,91.629 186.220,89.827 188.200 C 86.946 191.366,85.568 192.898,82.174 196.706 L 81.347 197.633 79.374 195.510 C 77.396 193.382,74.445 190.135,66.003 180.800 C 63.516 178.050,60.023 174.211,58.241 172.269 C 56.458 170.328,54.940 168.573,54.867 168.369 C 54.786 168.146,65.174 168.000,81.167 168.000 C 95.705 168.000,107.600 168.136,107.600 168.302 M204.400 168.322 C 204.400 168.499,203.753 169.354,202.963 170.222 C 202.172 171.090,200.867 172.522,200.063 173.403 C 198.625 174.979,193.026 181.189,190.527 183.979 C 189.827 184.760,188.593 186.120,187.785 187.000 C 186.977 187.880,184.494 190.641,182.266 193.137 L 178.215 197.673 176.207 195.506 C 174.401 193.556,171.140 189.948,166.000 184.212 C 165.010 183.107,163.927 181.932,163.593 181.601 C 163.259 181.271,161.639 179.482,159.993 177.628 C 158.347 175.773,156.132 173.343,155.070 172.228 C 154.009 171.112,152.781 169.705,152.343 169.100 L 151.546 168.000 177.973 168.000 C 192.508 168.000,204.400 168.145,204.400 168.322 M299.225 169.059 C 298.767 169.641,297.058 171.576,295.428 173.359 C 293.798 175.142,292.075 177.050,291.601 177.600 C 288.115 181.640,288.178 181.600,285.284 181.606 C 278.921 181.620,273.452 183.972,269.079 188.577 L 267.157 190.600 264.879 188.162 C 262.383 185.492,257.322 179.925,255.983 178.378 C 255.517 177.840,253.756 175.891,252.068 174.046 C 247.986 169.583,247.201 168.656,247.200 168.300 C 247.200 168.135,259.093 168.000,273.629 168.000 L 300.058 168.000 299.225 169.059 M48.634 174.300 C 48.262 174.672,48.363 234.000,48.736 234.000 C 48.920 234.000,52.194 230.559,56.012 226.353 C 59.829 222.147,63.143 218.500,63.376 218.250 C 63.609 217.999,65.330 216.086,67.200 213.998 C 69.070 211.910,71.345 209.392,72.256 208.401 C 75.635 204.726,75.959 204.232,75.452 203.538 C 75.194 203.186,73.528 201.300,71.750 199.349 C 69.972 197.397,64.096 190.910,58.692 184.933 C 53.288 178.956,48.762 174.171,48.634 174.300 M110.554 177.500 C 107.361 181.053,102.153 186.808,97.800 191.594 C 86.757 203.734,86.799 203.687,86.809 204.200 C 86.813 204.420,89.179 207.210,92.067 210.400 C 99.984 219.144,103.435 222.957,107.435 227.380 C 109.435 229.591,111.725 232.120,112.525 233.000 L 113.978 234.600 113.989 204.300 C 113.995 187.635,113.932 174.000,113.849 174.000 C 113.766 174.000,112.283 175.575,110.554 177.500 M145.448 174.286 C 145.139 174.594,145.116 233.783,145.424 234.091 C 145.616 234.282,148.602 231.141,154.796 224.234 C 155.568 223.373,157.113 221.663,158.228 220.434 C 172.968 204.200,172.823 204.369,172.485 203.771 C 172.328 203.495,171.476 202.488,170.591 201.534 C 169.706 200.580,165.749 196.200,161.797 191.800 C 157.846 187.400,154.339 183.530,154.005 183.200 C 153.671 182.870,151.869 180.891,149.999 178.803 C 145.492 173.768,145.729 174.004,145.448 174.286 M207.399 177.499 C 205.676 179.425,202.811 182.607,201.033 184.572 C 199.255 186.537,196.810 189.243,195.600 190.587 C 194.390 191.931,191.846 194.735,189.947 196.818 C 184.118 203.212,183.619 203.789,183.609 204.138 C 183.602 204.388,194.072 216.235,198.191 220.637 C 199.326 221.849,208.832 232.361,209.733 233.400 C 210.306 234.060,210.780 234.407,210.787 234.172 C 210.794 233.936,210.035 232.938,209.100 231.954 C 208.165 230.970,206.230 228.826,204.800 227.189 C 203.370 225.552,201.840 223.835,201.400 223.373 C 200.960 222.912,199.160 220.941,197.400 218.994 C 195.640 217.047,193.840 215.074,193.400 214.611 C 192.960 214.148,191.250 212.251,189.600 210.394 C 187.950 208.538,186.018 206.396,185.307 205.634 C 184.063 204.301,184.040 204.217,184.707 203.440 C 185.679 202.307,187.991 199.723,189.322 198.282 C 189.940 197.614,191.380 195.989,192.522 194.671 C 193.665 193.352,195.140 191.708,195.800 191.017 C 198.700 187.979,207.106 178.676,208.646 176.800 C 209.278 176.030,210.066 175.190,210.397 174.933 C 210.728 174.676,210.894 174.360,210.765 174.232 C 210.637 174.103,209.122 175.574,207.399 177.499 M240.800 174.083 C 240.800 174.226,241.026 174.581,241.303 174.871 C 241.579 175.162,242.319 176.030,242.947 176.800 C 243.575 177.570,244.834 179.010,245.746 180.000 C 246.657 180.990,248.842 183.417,250.602 185.394 C 252.361 187.371,254.431 189.621,255.202 190.394 C 255.973 191.167,257.124 192.430,257.760 193.200 C 258.396 193.970,259.912 195.706,261.128 197.058 L 263.340 199.515 263.240 204.258 L 263.140 209.000 261.070 211.399 C 259.931 212.719,258.460 214.351,257.800 215.026 C 257.140 215.701,255.817 217.141,254.859 218.227 C 253.902 219.312,252.281 221.100,251.258 222.200 C 250.235 223.300,248.048 225.723,246.399 227.585 C 244.749 229.447,242.815 231.599,242.100 232.368 C 241.385 233.137,240.800 233.945,240.800 234.163 C 240.800 234.412,240.926 234.419,241.138 234.180 C 241.324 233.971,243.439 231.635,245.838 228.989 C 265.647 207.138,263.972 209.465,263.971 203.800 L 263.971 199.400 258.728 193.600 C 251.241 185.317,247.341 181.002,244.642 178.012 C 241.226 174.228,240.800 173.793,240.800 174.083 M302.589 177.637 C 298.490 182.231,298.481 182.000,302.767 182.000 L 306.400 182.000 306.400 178.224 C 306.400 173.396,306.375 173.392,302.589 177.637 M51.766 178.008 C 52.627 178.994,54.337 180.893,55.566 182.229 C 57.398 184.222,62.988 190.374,64.600 192.173 C 64.820 192.419,66.530 194.325,68.400 196.409 C 70.270 198.493,72.430 200.900,73.200 201.758 C 73.970 202.617,74.802 203.516,75.049 203.757 C 75.380 204.079,75.327 204.353,74.847 204.797 C 74.489 205.129,72.848 206.930,71.201 208.800 C 69.554 210.670,67.288 213.190,66.167 214.400 C 65.046 215.610,63.335 217.500,62.364 218.600 C 61.394 219.700,60.329 220.870,59.998 221.200 C 59.667 221.530,58.047 223.326,56.398 225.191 C 54.749 227.056,52.368 229.666,51.106 230.991 L 48.812 233.400 48.806 204.025 C 48.800 176.017,48.833 174.686,49.500 175.432 C 49.885 175.863,50.905 177.022,51.766 178.008 M150.642 180.200 C 155.173 185.240,154.504 184.498,158.443 188.843 C 160.116 190.690,163.264 194.180,165.438 196.600 C 167.612 199.020,170.049 201.706,170.853 202.569 L 172.315 204.137 170.821 205.769 C 168.086 208.753,161.768 215.781,160.576 217.164 C 159.929 217.914,158.860 219.086,158.200 219.769 C 157.540 220.451,155.650 222.537,154.000 224.404 C 152.350 226.271,150.730 228.070,150.400 228.403 C 150.070 228.735,148.855 230.029,147.700 231.279 L 145.600 233.552 145.600 204.090 C 145.600 179.257,145.685 174.721,146.143 175.214 C 146.442 175.536,148.466 177.780,150.642 180.200 M240.590 204.000 C 240.590 220.170,240.639 226.785,240.700 218.700 C 240.760 210.615,240.760 197.385,240.700 189.300 C 240.639 181.215,240.590 187.830,240.590 204.000 M305.865 181.468 C 305.772 181.561,304.398 181.584,302.811 181.518 L 299.926 181.400 302.863 178.089 L 305.800 174.777 305.917 178.038 C 305.981 179.832,305.958 181.375,305.865 181.468 M113.600 204.287 L 113.600 233.375 111.700 231.369 C 110.655 230.266,108.630 228.024,107.200 226.388 C 105.770 224.751,104.240 223.038,103.800 222.580 C 103.360 222.123,101.740 220.333,100.200 218.604 C 98.660 216.875,96.860 214.899,96.200 214.212 C 95.540 213.526,93.650 211.444,92.000 209.585 C 90.350 207.726,88.592 205.787,88.092 205.277 C 86.994 204.153,87.110 203.948,91.400 199.437 C 91.840 198.974,93.550 197.073,95.200 195.213 C 96.850 193.353,98.560 191.452,99.000 190.989 C 99.440 190.527,101.060 188.737,102.600 187.013 C 104.140 185.289,106.340 182.871,107.489 181.639 C 108.637 180.408,110.347 178.464,111.289 177.319 C 112.230 176.175,113.135 175.230,113.300 175.219 C 113.465 175.209,113.600 188.289,113.600 204.287 M80.386 210.700 C 80.378 210.865,79.456 211.990,78.336 213.200 C 77.217 214.410,73.132 218.910,69.259 223.200 C 65.385 227.490,61.381 231.900,60.360 233.000 C 56.688 236.959,54.000 240.107,54.000 240.450 C 54.000 240.849,108.126 240.940,108.524 240.543 C 108.733 240.333,104.062 234.843,101.596 232.400 C 101.263 232.070,97.755 228.200,93.800 223.800 C 89.845 219.400,85.819 214.952,84.853 213.916 C 83.888 212.880,82.840 211.665,82.526 211.216 C 81.983 210.441,80.416 210.063,80.386 210.700 M176.151 212.110 C 174.500 213.929,168.843 220.176,165.200 224.200 C 163.990 225.537,161.453 228.334,159.561 230.415 C 153.562 237.018,150.806 240.191,150.803 240.500 C 150.801 240.665,163.130 240.800,178.200 240.800 C 193.270 240.800,205.600 240.694,205.600 240.564 C 205.600 240.340,201.944 236.149,197.960 231.806 C 196.948 230.703,194.158 227.633,191.760 224.983 C 189.362 222.334,185.938 218.554,184.152 216.583 C 182.365 214.613,180.414 212.415,179.816 211.700 C 178.406 210.014,178.012 210.058,176.151 212.110 M82.477 211.936 C 83.070 212.769,88.582 218.879,91.000 221.382 C 91.880 222.293,93.767 224.380,95.192 226.019 C 96.618 227.659,97.878 229.090,97.993 229.200 C 98.107 229.310,99.821 231.194,101.801 233.386 C 103.780 235.578,106.024 238.008,106.787 238.786 L 108.174 240.200 94.687 240.305 C 87.269 240.363,75.174 240.363,67.809 240.305 L 54.418 240.200 56.709 237.741 C 57.969 236.388,59.701 234.498,60.558 233.541 C 61.415 232.583,62.945 230.898,63.958 229.795 C 64.971 228.692,67.150 226.279,68.800 224.433 C 70.450 222.587,72.250 220.587,72.800 219.988 C 77.766 214.581,80.221 211.828,80.333 211.541 C 80.572 210.930,81.942 211.182,82.477 211.936 M180.013 212.700 C 184.323 217.521,188.330 221.924,189.200 222.797 C 189.750 223.349,191.369 225.150,192.797 226.800 C 194.225 228.450,195.665 230.070,195.997 230.400 C 196.329 230.730,198.040 232.620,199.799 234.600 C 201.559 236.580,203.513 238.695,204.141 239.300 L 205.285 240.400 178.157 240.400 L 151.030 240.400 153.015 238.328 C 154.107 237.188,155.180 236.041,155.400 235.779 C 155.620 235.517,157.346 233.614,159.237 231.551 C 161.127 229.488,163.287 227.084,164.037 226.210 C 164.786 225.335,166.422 223.535,167.670 222.210 C 168.919 220.884,170.539 219.095,171.270 218.232 C 177.387 211.021,178.105 210.567,180.013 212.700 M257.544 227.500 C 254.611 230.745,252.028 233.595,251.805 233.834 C 249.816 235.967,246.172 240.169,246.064 240.456 C 245.985 240.664,249.695 240.770,254.864 240.708 L 263.800 240.600 263.907 231.100 C 263.997 223.109,263.924 221.600,263.446 221.600 C 263.134 221.600,260.478 224.255,257.544 227.500 M263.200 231.400 L 263.200 240.400 254.790 240.400 L 246.379 240.400 248.924 237.700 C 250.324 236.215,252.263 234.100,253.234 233.000 C 254.206 231.900,255.271 230.730,255.603 230.400 C 255.935 230.070,257.373 228.450,258.800 226.800 C 261.283 223.928,262.763 222.400,263.061 222.400 C 263.138 222.400,263.200 226.450,263.200 231.400 M321.800 233.443 C 316.581 234.734,313.024 240.709,314.473 245.754 C 316.831 253.969,327.874 255.876,332.506 248.868 C 336.843 242.307,332.726 233.813,325.000 233.380 C 323.680 233.306,322.240 233.335,321.800 233.443 M302.126 275.980 C 297.413 278.854,299.757 284.494,305.767 284.741 L 309.200 284.882 309.200 280.041 L 309.200 275.200 306.300 275.201 C 304.134 275.203,303.077 275.400,302.126 275.980 M317.288 280.100 L 317.400 285.000 330.800 285.000 C 345.634 285.000,345.777 284.978,347.485 282.441 C 348.644 280.720,348.644 279.281,347.488 277.565 C 345.905 275.216,345.878 275.212,330.888 275.206 L 317.175 275.200 317.288 280.100 M346.066 276.408 C 348.570 278.915,347.984 282.866,344.936 284.025 C 344.392 284.231,338.020 284.400,330.774 284.400 L 317.600 284.400 317.600 279.976 L 317.600 275.553 331.529 275.676 C 343.347 275.781,345.550 275.892,346.066 276.408 M302.800 307.832 C 296.949 310.344,299.867 317.200,306.787 317.200 L 309.200 317.200 309.200 312.200 L 309.200 307.200 306.700 307.216 C 305.325 307.224,303.570 307.502,302.800 307.832 M317.200 312.200 L 317.200 317.200 330.700 317.181 C 346.898 317.158,348.295 316.748,348.379 312.000 C 348.456 307.695,346.623 307.200,330.613 307.200 L 317.200 307.200 317.200 312.200 M346.035 308.513 C 347.859 309.914,348.169 313.294,346.635 315.078 L 345.670 316.200 331.635 316.315 L 317.600 316.430 317.600 312.215 L 317.600 308.000 331.500 308.013 C 341.796 308.022,345.565 308.152,346.035 308.513 M25.700 331.344 C 25.205 331.589,24.800 332.028,24.800 332.318 C 24.800 332.609,24.620 332.736,24.400 332.600 C 24.180 332.464,24.000 332.713,24.000 333.153 C 24.000 333.593,23.820 334.064,23.600 334.200 C 21.977 335.203,24.129 341.600,26.089 341.600 C 26.480 341.600,26.800 341.780,26.800 342.000 C 26.800 342.782,31.166 342.463,32.077 341.614 C 32.541 341.181,33.086 340.930,33.288 341.054 C 33.489 341.179,33.752 340.904,33.872 340.445 C 33.993 339.985,34.250 339.708,34.445 339.828 C 34.640 339.949,34.800 339.507,34.800 338.847 C 34.800 338.187,34.980 337.536,35.200 337.400 C 35.420 337.264,35.587 336.758,35.572 336.276 C 35.545 335.431,35.531 335.429,35.200 336.200 C 34.930 336.828,34.850 336.651,34.828 335.378 C 34.764 331.669,29.627 329.399,25.700 331.344 " stroke="none" fill="#e7b943" fill-rule="evenodd"></path></g></svg>